<svg width="36" height="36" viewBox="0 0 36 36" fill="none" xmlns="http://www.w3.org/2000/svg">
<path d="M0.200003 29.5747C0.200003 33.9488 6.64703 35.9999 14.6 35.9999C22.553 35.9999 29 33.6857 29 29.5747C29 21.6496 22.553 15.2251 14.6 15.2251C6.64703 15.2251 0.200003 21.6496 0.200003 29.5747Z" fill="url(#paint0_linear_8309_22872)"/>
<path d="M0.199694 29.5746C0.199694 33.9487 6.64672 35.9998 14.5997 35.9998C20.52 35.9998 25.6059 34.7174 27.8188 32.366C25.2285 33.4103 21.703 33.9625 17.8179 33.9625C9.86495 33.9625 3.41792 31.9116 3.41792 27.5375C3.41792 23.1234 5.41787 19.1749 8.56418 16.5425C3.62603 18.8172 0.199694 23.7972 0.199694 29.5746Z" fill="url(#paint1_linear_8309_22872)"/>
<path d="M14.6002 19.3898C9.22701 19.3898 4.87122 15.0492 4.87122 9.69488C4.87122 4.34054 9.22701 0 14.6002 0C19.9733 0 24.3291 4.34054 24.3291 9.69488C24.3291 15.0492 19.9733 19.3898 14.6002 19.3898Z" fill="url(#paint2_linear_8309_22872)"/>
<path d="M4.87098 9.69471C4.87098 15.0491 9.22694 19.3898 14.6001 19.3898C19.2108 19.3898 23.0728 16.1936 24.0757 11.903C22.6082 14.8888 19.5287 16.9448 15.9673 16.9448C10.9835 16.9448 6.94344 12.9188 6.94344 7.95268C6.94344 5.18548 8.19777 2.71021 10.1709 1.06055C7.02437 2.66647 4.87098 5.92986 4.87098 9.69471Z" fill="url(#paint3_linear_8309_22872)"/>
<path d="M18.1886 6.31137C19.7727 7.88976 20.8583 9.36738 21.8896 8.33986C22.921 7.31214 22.4728 5.1993 20.8887 3.62072C19.3046 2.04233 17.1845 1.59555 16.1531 2.62327C15.1216 3.65079 16.6044 4.73279 18.1886 6.31137Z" fill="#FAF0D7"/>
<path d="M21.1883 23.4132C22.7725 24.9916 23.8581 26.4692 24.8894 25.4417C25.9207 24.4139 25.4726 22.3011 23.8884 20.7225C22.3043 19.1441 20.1842 18.6974 19.1529 19.7251C18.1216 20.7526 19.6042 21.8346 21.1883 23.4132Z" fill="#FAF0D7"/>
<path d="M29.3484 24.9503C28.2609 26.0157 26.9181 26.5264 25.5627 25.2371C24.7653 24.4806 24.1695 20.6256 24.1758 17.0039C24.1758 16.9377 24.1758 16.8778 24.1758 16.8211C24.1758 16.695 24.179 16.5941 24.1758 16.5216C24.1758 16.4775 24.179 16.4302 24.1758 16.3861C24.2263 13.8739 24.5825 11.5981 25.3799 10.8195C26.1932 10.0283 28.9449 9.18671 30.0419 11.5224C30.3539 12.1875 30.543 13.2403 30.6282 14.4759C30.9245 18.4507 30.1995 24.1213 29.3484 24.9503Z" fill="url(#paint4_linear_8309_22872)"/>
<path opacity="0.5" d="M24.1789 16.3828C24.1789 16.3828 24.1758 16.4301 24.1758 16.5215C24.1758 16.4774 24.1789 16.4301 24.1758 16.386L24.1789 16.3828Z" fill="url(#paint5_linear_8309_22872)"/>
<g style="mix-blend-mode:overlay" opacity="0.5">
<path d="M29.3484 24.9502C28.2609 26.0156 26.9181 26.5263 25.5627 25.2371C24.7653 24.4806 24.1695 20.6256 24.1758 17.0038C24.1916 18.8793 24.4879 24.1969 27.4288 24.6886C30.8299 25.2591 30.6502 15.1977 30.6313 14.4758C30.9245 18.4506 30.1995 24.1212 29.3484 24.9502Z" fill="url(#paint6_linear_8309_22872)"/>
</g>
<path d="M35.5737 19.6012C35.3404 20.0551 34.9307 20.4649 34.2813 20.7517C33.6351 21.0354 32.6107 21.2214 31.4035 21.3191C31.0662 21.3475 30.7195 21.3696 30.3538 21.3822C28.431 21.4704 26.2183 21.3885 24.3522 21.1993C22.3759 20.9976 20.7746 20.6729 20.3176 20.2947C19.58 19.6863 19.041 18.9803 19 18.2269C19 18.1922 19 18.1607 19 18.1261C19.0032 17.6123 19.2396 17.0827 19.8069 16.5437C20.6517 15.7462 25.0142 15.2167 28.9354 15.2986C29.0047 15.2986 29.0678 15.3018 29.1245 15.3018C29.2569 15.3049 29.3641 15.3081 29.4397 15.3081C29.4838 15.3081 29.5343 15.3112 29.5816 15.3112C32.1694 15.4121 34.4295 15.7872 35.1545 16.5406C35.6682 17.0796 36.1474 18.4822 35.5737 19.6012Z" fill="url(#paint7_linear_8309_22872)"/>
<path opacity="0.5" d="M29.1276 15.3017C29.0645 15.2986 28.9983 15.2986 28.9353 15.2986C29.0046 15.2986 29.0677 15.3017 29.1276 15.3017Z" fill="url(#paint8_linear_8309_22872)"/>
<path opacity="0.2" d="M35.4792 18.0189C33.8622 15.6328 29.9032 18.6493 29.0836 19.513C28.2704 20.3672 33.1341 20.8778 34.2215 20.4397C35.3122 19.9984 35.9331 18.6903 35.4792 18.0189Z" fill="white"/>
<path d="M29.0331 10.7566C27.621 10.703 29.1024 12.4807 29.4838 12.8558C29.8589 13.2341 30.0039 10.7944 29.0331 10.7566Z" fill="white"/>
<g style="mix-blend-mode:overlay" opacity="0.5">
<path d="M24.3396 20.4585L24.3554 21.2024C22.379 21.0007 20.7778 20.676 20.3207 20.2978C19.5831 19.6894 19.0441 18.9833 19.0032 18.23C19 18.1922 19 18.1606 19 18.126C19.3719 20.4144 24.3396 20.4585 24.3396 20.4585Z" fill="url(#paint9_linear_8309_22872)"/>
</g>
<g style="mix-blend-mode:overlay" opacity="0.5">
<path d="M35.5736 19.6013C35.3404 20.0552 34.9306 20.465 34.2813 20.7518C33.6351 21.0355 32.6107 21.2215 31.4034 21.3192C31.0661 21.3476 30.7194 21.3696 30.3538 21.3822L30.4483 20.6163C30.4515 20.6194 34.2214 21.19 35.5736 19.6013Z" fill="url(#paint10_linear_8309_22872)"/>
</g>
<path d="M30.5335 15.9511C30.2908 16.033 30.9685 16.2758 31.4854 16.2096C32.0024 16.1402 31.6493 15.5697 30.5335 15.9511Z" fill="white"/>
<path opacity="0.2" d="M26.9842 10.4066C24.4215 12.1812 27.7848 17.2781 28.7052 18.0567C29.6162 18.8258 30.1615 12.717 29.6824 11.6012C29.1969 10.4727 27.7281 9.89276 26.9842 10.4066Z" fill="white"/>
<defs>
<linearGradient id="paint0_linear_8309_22872" x1="29" y1="15.2251" x2="-2.88761" y2="22.5398" gradientUnits="userSpaceOnUse">
<stop stop-color="#FF6A17"/>
<stop offset="1" stop-color="#FA9A5A"/>
</linearGradient>
<linearGradient id="paint1_linear_8309_22872" x1="27.8188" y1="16.5425" x2="-2.68745" y2="23.7078" gradientUnits="userSpaceOnUse">
<stop stop-color="#EB3609"/>
<stop offset="1" stop-color="#F15028"/>
</linearGradient>
<linearGradient id="paint2_linear_8309_22872" x1="24.3291" y1="0" x2="2.26004" y2="3.66459" gradientUnits="userSpaceOnUse">
<stop stop-color="#FF6A17"/>
<stop offset="1" stop-color="#FA9A5A"/>
</linearGradient>
<linearGradient id="paint3_linear_8309_22872" x1="24.0757" y1="1.06055" x2="2.34633" y2="4.82783" gradientUnits="userSpaceOnUse">
<stop stop-color="#EB3609"/>
<stop offset="1" stop-color="#F15028"/>
</linearGradient>
<linearGradient id="paint4_linear_8309_22872" x1="26.8954" y1="25.9164" x2="27.8365" y2="9.91856" gradientUnits="userSpaceOnUse">
<stop stop-color="#4CB825"/>
<stop offset="1" stop-color="#59D62B"/>
</linearGradient>
<linearGradient id="paint5_linear_8309_22872" x1="24.1762" y1="16.5218" x2="24.1762" y2="16.3839" gradientUnits="userSpaceOnUse">
<stop stop-color="#810079"/>
<stop offset="0.0144" stop-color="#83057B"/>
<stop offset="0.2989" stop-color="#AF5CAA"/>
<stop offset="0.5494" stop-color="#D1A2CE"/>
<stop offset="0.7567" stop-color="#EAD4E9"/>
<stop offset="0.9128" stop-color="#F9F3F9"/>
<stop offset="1" stop-color="white"/>
</linearGradient>
<linearGradient id="paint6_linear_8309_22872" x1="27.4346" y1="26.0004" x2="27.4346" y2="14.4762" gradientUnits="userSpaceOnUse">
<stop stop-color="#810079"/>
<stop offset="0.0144" stop-color="#83057B"/>
<stop offset="0.2989" stop-color="#AF5CAA"/>
<stop offset="0.5494" stop-color="#D1A2CE"/>
<stop offset="0.7567" stop-color="#EAD4E9"/>
<stop offset="0.9128" stop-color="#F9F3F9"/>
<stop offset="1" stop-color="white"/>
</linearGradient>
<linearGradient id="paint7_linear_8309_22872" x1="26.9495" y1="26.2739" x2="27.8904" y2="10.2793" gradientUnits="userSpaceOnUse">
<stop stop-color="#4DB825"/>
<stop offset="1" stop-color="#59D62B"/>
</linearGradient>
<linearGradient id="paint8_linear_8309_22872" x1="28.9356" y1="15.3003" x2="29.1275" y2="15.3003" gradientUnits="userSpaceOnUse">
<stop stop-color="#810079"/>
<stop offset="0.0144" stop-color="#83057B"/>
<stop offset="0.2989" stop-color="#AF5CAA"/>
<stop offset="0.5494" stop-color="#D1A2CE"/>
<stop offset="0.7567" stop-color="#EAD4E9"/>
<stop offset="0.9128" stop-color="#F9F3F9"/>
<stop offset="1" stop-color="white"/>
</linearGradient>
<linearGradient id="paint9_linear_8309_22872" x1="21.678" y1="21.2015" x2="21.678" y2="18.1255" gradientUnits="userSpaceOnUse">
<stop stop-color="#810079"/>
<stop offset="0.0144" stop-color="#83057B"/>
<stop offset="0.2989" stop-color="#AF5CAA"/>
<stop offset="0.5494" stop-color="#D1A2CE"/>
<stop offset="0.7567" stop-color="#EAD4E9"/>
<stop offset="0.9128" stop-color="#F9F3F9"/>
<stop offset="1" stop-color="white"/>
</linearGradient>
<linearGradient id="paint10_linear_8309_22872" x1="32.9648" y1="21.3856" x2="32.9648" y2="19.6026" gradientUnits="userSpaceOnUse">
<stop stop-color="#810079"/>
<stop offset="0.0144" stop-color="#83057B"/>
<stop offset="0.2989" stop-color="#AF5CAA"/>
<stop offset="0.5494" stop-color="#D1A2CE"/>
<stop offset="0.7567" stop-color="#EAD4E9"/>
<stop offset="0.9128" stop-color="#F9F3F9"/>
<stop offset="1" stop-color="white"/>
</linearGradient>
</defs>
</svg>
