<svg width="39" height="36" viewBox="0 0 39 36" fill="none" xmlns="http://www.w3.org/2000/svg">
<path d="M19 23.7165C19 26.6326 23.298 28 28.6 28C33.9019 28 38.2 26.4572 38.2 23.7165C38.2 18.4331 33.9019 14.1501 28.6 14.1501C23.298 14.1501 19 18.4331 19 23.7165Z" fill="url(#paint0_linear_7775_11885)"/>
<path d="M18.9998 23.7164C18.9998 26.6324 23.2978 27.9999 28.5998 27.9999C32.5467 27.9999 35.9373 27.145 37.4126 25.5773C35.6857 26.2735 33.3354 26.6417 30.7453 26.6417C25.4433 26.6417 21.1453 25.2744 21.1453 22.3583C21.1453 19.4156 22.4786 16.7833 24.5762 15.0283C21.2841 16.5448 18.9998 19.8648 18.9998 23.7164Z" fill="url(#paint1_linear_7775_11885)"/>
<path d="M28.6 16.9265C25.0179 16.9265 22.114 14.0328 22.114 10.4633C22.114 6.8937 25.0179 4 28.6 4C32.1821 4 35.0859 6.8937 35.0859 10.4633C35.0859 14.0328 32.1821 16.9265 28.6 16.9265Z" fill="url(#paint2_linear_7775_11885)"/>
<path d="M22.1139 10.4631C22.1139 14.0327 25.0178 16.9265 28.5999 16.9265C31.6738 16.9265 34.2484 14.7957 34.917 11.9354C33.9386 13.9258 31.8856 15.2965 29.5114 15.2965C26.1889 15.2965 23.4955 12.6126 23.4955 9.30179C23.4955 7.45698 24.3317 5.8068 25.6471 4.70703C23.5494 5.77764 22.1139 7.95324 22.1139 10.4631Z" fill="url(#paint3_linear_7775_11885)"/>
<path d="M30.9924 8.20758C32.0485 9.25984 32.7722 10.2449 33.4598 9.55991C34.1473 8.87476 33.8486 7.4662 32.7925 6.41381C31.7364 5.36155 30.323 5.0637 29.6355 5.74884C28.9478 6.43386 29.9363 7.15519 30.9924 8.20758Z" fill="#FAF0D7"/>
<path d="M32.9922 19.6087C34.0483 20.661 34.772 21.646 35.4595 20.961C36.1471 20.2759 35.8483 18.8673 34.7922 17.8149C33.7362 16.7627 32.3228 16.4648 31.6352 17.15C30.9477 17.835 31.9361 18.5563 32.9922 19.6087Z" fill="#FAF0D7"/>
<path d="M5.14984e-05 29.5747C5.14984e-05 33.9488 6.44708 35.9999 14.4001 35.9999C22.353 35.9999 28.8 33.6857 28.8 29.5747C28.8 21.6496 22.353 15.2251 14.4001 15.2251C6.44708 15.2251 5.14984e-05 21.6496 5.14984e-05 29.5747Z" fill="#2059E9"/>
<path d="M-1.33514e-05 29.5748C-1.33514e-05 33.9489 6.44702 36 14.4 36C20.3203 36 25.4062 34.7177 27.6191 32.3662C25.0288 33.4105 21.5033 33.9628 17.6182 33.9628C9.66524 33.9628 3.21821 31.9118 3.21821 27.5377C3.21821 23.1236 5.21816 19.1752 8.36447 16.5427C3.42632 18.8175 -1.33514e-05 23.7975 -1.33514e-05 29.5748Z" fill="#1C51BA"/>
<path d="M14.4 19.3898C9.02682 19.3898 4.67102 15.0492 4.67102 9.69488C4.67102 4.34054 9.02682 0 14.4 0C19.7731 0 24.1289 4.34054 24.1289 9.69488C24.1289 15.0492 19.7731 19.3898 14.4 19.3898Z" fill="#2059E9"/>
<path d="M4.67103 9.69495C4.67103 15.0493 9.02699 19.39 14.4002 19.39C19.0109 19.39 22.8728 16.1938 23.8757 11.9033C22.4082 14.889 19.3287 16.945 15.7674 16.945C10.7836 16.945 6.74349 12.9191 6.74349 7.95292C6.74349 5.18572 7.99781 2.71045 9.97092 1.06079C6.82442 2.66671 4.67103 5.9301 4.67103 9.69495Z" fill="#1C51BA"/>
<path d="M17.9889 6.31113C19.573 7.88951 20.6586 9.36714 21.6899 8.33962C22.7213 7.3119 22.2731 5.19905 20.689 3.62047C19.1048 2.04209 16.9848 1.5953 15.9534 2.62302C14.9219 3.65054 16.4047 4.73255 17.9889 6.31113Z" fill="#5A91FF"/>
<path d="M20.9884 23.4129C22.5725 24.9913 23.6581 26.4689 24.6894 25.4414C25.7208 24.4137 25.2726 22.3009 23.6885 20.7223C22.1044 19.1439 19.9843 18.6971 18.953 19.7248C17.9216 20.7524 19.4042 21.8344 20.9884 23.4129Z" fill="#5A91FF"/>
<defs>
<linearGradient id="paint0_linear_7775_11885" x1="38.2" y1="14.1501" x2="16.9415" y2="19.0266" gradientUnits="userSpaceOnUse">
<stop stop-color="#FF6A17"/>
<stop offset="1" stop-color="#FA9A5A"/>
</linearGradient>
<linearGradient id="paint1_linear_7775_11885" x1="37.4126" y1="15.0283" x2="17.0751" y2="19.8052" gradientUnits="userSpaceOnUse">
<stop stop-color="#EB3609"/>
<stop offset="1" stop-color="#F15028"/>
</linearGradient>
<linearGradient id="paint2_linear_7775_11885" x1="35.0859" y1="4" x2="20.3732" y2="6.44306" gradientUnits="userSpaceOnUse">
<stop stop-color="#FF6A17"/>
<stop offset="1" stop-color="#FA9A5A"/>
</linearGradient>
<linearGradient id="paint3_linear_7775_11885" x1="34.917" y1="4.70703" x2="20.4308" y2="7.21856" gradientUnits="userSpaceOnUse">
<stop stop-color="#EB3609"/>
<stop offset="1" stop-color="#F15028"/>
</linearGradient>
</defs>
</svg>
