<svg width="40" height="40" viewBox="0 0 40 40" fill="none" xmlns="http://www.w3.org/2000/svg">
<path fill-rule="evenodd" clip-rule="evenodd" d="M7.31898 10.9092H32.6791C34.088 10.9092 35.4969 12.1654 35.7408 13.4216L38.7815 31.8458C38.8626 32.2646 38.1593 32.5901 37.4538 32.6833C24.7748 34.3582 15.2253 34.3582 2.54422 32.6833C2.19459 32.6371 1.1352 32.2646 1.2166 31.8458L4.25734 13.4216C4.50112 12.1654 5.91002 10.9092 7.31898 10.9092Z" fill="#536C7A"/>
<path fill-rule="evenodd" clip-rule="evenodd" d="M7.72795 7.27271H32.27C33.6334 7.27271 34.9968 8.5289 35.2329 9.7851L38.1755 28.2093C38.2541 28.6281 37.5734 28.9536 36.8907 29.0468C24.6207 30.7217 15.3792 30.7217 3.1072 29.0468C2.76885 29.0006 1.74364 28.6281 1.82242 28.2093L4.76507 9.7851C5.00099 8.5289 6.36443 7.27271 7.72795 7.27271Z" fill="#AACDE0"/>
<path fill-rule="evenodd" clip-rule="evenodd" d="M35.7576 26.111C35.7537 26.3895 35.1571 26.603 34.5588 26.6666C23.1652 27.8787 16.8349 27.8787 5.43944 26.6666C5.1373 26.6345 4.24527 26.3839 4.24244 26.0952C4.23959 26.4348 5.13633 27.3919 5.43944 27.4242C16.8349 28.6363 23.1652 28.6363 34.5587 27.4242C35.161 27.3601 35.7616 26.4605 35.7576 26.111Z" fill="#518EB0"/>
<path fill-rule="evenodd" clip-rule="evenodd" d="M8.60459 10.9089H31.3937C32.6597 10.9089 33.9257 11.818 34.1449 12.7271L35.7518 26.0604C35.8247 26.3635 35.1927 26.5991 34.5588 26.6665C23.1652 27.8786 16.8349 27.8786 5.43944 26.6665C5.12526 26.6331 4.17328 26.3635 4.24643 26.0604L5.85335 12.7271C6.07241 11.818 7.33847 10.9089 8.60459 10.9089Z" fill="url(#paint0_linear_7791_15014)"/>
<path fill-rule="evenodd" clip-rule="evenodd" d="M9.09014 6.06055H30.9083C32.1204 6.06055 33.3325 6.96964 33.5424 7.87873L35.0808 21.2121C35.1506 21.5151 34.5455 21.7507 33.9386 21.8181C23.0304 23.0302 16.9698 23.0302 6.05983 21.8181C5.75904 21.7847 4.84761 21.5151 4.91764 21.2121L6.4561 7.87873C6.66584 6.96964 7.87796 6.06055 9.09014 6.06055Z" fill="url(#paint1_linear_7791_15014)"/>
<path opacity="0.32" d="M6.58044 24.254H7.16377V25.724C7.13933 25.7306 7.10155 25.7373 7.05044 25.744C6.99933 25.7506 6.9471 25.754 6.89377 25.754C6.77821 25.754 6.6971 25.734 6.65044 25.694C6.60377 25.6517 6.58044 25.5795 6.58044 25.4773V24.254ZM7.16377 25.024H6.58044V23.7006C6.6071 23.6962 6.64599 23.6906 6.6971 23.684C6.75044 23.6751 6.80155 23.6706 6.85044 23.6706C6.96155 23.6706 7.04155 23.6895 7.09044 23.7273C7.13933 23.7651 7.16377 23.8384 7.16377 23.9473V25.024ZM7.80377 24.254H8.3871V25.724C8.36266 25.7306 8.32488 25.7373 8.27377 25.744C8.22266 25.7506 8.17044 25.754 8.1171 25.754C8.00155 25.754 7.92044 25.734 7.87377 25.694C7.8271 25.6517 7.80377 25.5795 7.80377 25.4773V24.254ZM8.3871 25.024H7.80377V23.7006C7.83044 23.6962 7.86933 23.6906 7.92044 23.684C7.97377 23.6751 8.02488 23.6706 8.07377 23.6706C8.18488 23.6706 8.26488 23.6906 8.31377 23.7306C8.36266 23.7706 8.3871 23.8451 8.3871 23.954V25.024ZM8.14044 24.9473H6.83044V24.4873H8.14044V24.9473ZM10.47 24.9173C10.47 25.0951 10.4334 25.2484 10.36 25.3773C10.2889 25.5062 10.1878 25.6062 10.0567 25.6773C9.9278 25.7462 9.77446 25.7806 9.59669 25.7806C9.42113 25.7806 9.2678 25.7462 9.13669 25.6773C9.00558 25.6084 8.90335 25.5095 8.83002 25.3806C8.75891 25.2517 8.72335 25.0973 8.72335 24.9173C8.72335 24.7417 8.76002 24.5895 8.83335 24.4606C8.90669 24.3317 9.00891 24.2329 9.14002 24.164C9.27113 24.0929 9.42335 24.0573 9.59669 24.0573C9.77224 24.0573 9.92446 24.0929 10.0534 24.164C10.1845 24.2351 10.2867 24.3351 10.36 24.464C10.4334 24.5929 10.47 24.744 10.47 24.9173ZM9.59669 24.5006C9.50558 24.5006 9.43335 24.5373 9.38002 24.6106C9.32891 24.6817 9.30335 24.784 9.30335 24.9173C9.30335 25.0551 9.32891 25.1595 9.38002 25.2306C9.43113 25.3017 9.50335 25.3373 9.59669 25.3373C9.69002 25.3373 9.76224 25.3017 9.81335 25.2306C9.86446 25.1573 9.89002 25.0529 9.89002 24.9173C9.89002 24.7862 9.86335 24.684 9.81002 24.6106C9.75891 24.5373 9.6878 24.5006 9.59669 24.5006ZM10.7798 24.8473H11.3465V25.724C11.322 25.7306 11.2865 25.7373 11.2398 25.744C11.1954 25.7506 11.1465 25.754 11.0931 25.754C10.9843 25.754 10.9043 25.7351 10.8531 25.6973C10.8043 25.6595 10.7798 25.5895 10.7798 25.4873V24.8473ZM11.3465 25.144H10.7798V23.554C10.8043 23.5473 10.8387 23.5406 10.8831 23.534C10.9298 23.5273 10.9798 23.524 11.0331 23.524C11.1443 23.524 11.2243 23.5429 11.2731 23.5806C11.322 23.6162 11.3465 23.6862 11.3465 23.7906V25.144ZM12.7637 25.2906V24.324H13.3271V25.3706C13.3271 25.4262 13.3149 25.474 13.2904 25.514C13.2682 25.554 13.2315 25.5895 13.1804 25.6206C13.116 25.6629 13.0326 25.6995 12.9304 25.7306C12.8282 25.764 12.7115 25.7806 12.5804 25.7806C12.3871 25.7806 12.2215 25.7484 12.0837 25.684C11.946 25.6195 11.8404 25.524 11.7671 25.3973C11.6937 25.2684 11.6571 25.1106 11.6571 24.924C11.6571 24.7284 11.6949 24.5673 11.7704 24.4406C11.846 24.3117 11.9482 24.2162 12.0771 24.154C12.2082 24.0895 12.3537 24.0573 12.5137 24.0573C12.5915 24.0573 12.6593 24.0651 12.7171 24.0806C12.7749 24.0962 12.8226 24.114 12.8604 24.134V24.594C12.8315 24.5717 12.7937 24.5506 12.7471 24.5306C12.7026 24.5106 12.6515 24.5006 12.5937 24.5006C12.5182 24.5006 12.4526 24.5162 12.3971 24.5473C12.3437 24.5784 12.3026 24.6251 12.2737 24.6873C12.2449 24.7495 12.2304 24.8284 12.2304 24.924C12.2304 25.064 12.2604 25.1673 12.3204 25.234C12.3826 25.3006 12.4682 25.334 12.5771 25.334C12.6171 25.334 12.6537 25.3295 12.6871 25.3206C12.7204 25.3095 12.746 25.2995 12.7637 25.2906ZM13.3271 24.4306H12.7604V23.554C12.7849 23.5473 12.8193 23.5406 12.8637 23.534C12.9104 23.5273 12.9604 23.524 13.0137 23.524C13.1249 23.524 13.2049 23.5429 13.2537 23.5806C13.3026 23.6162 13.3271 23.6862 13.3271 23.7906V24.4306ZM14.8409 24.6673V24.234H15.4709C15.4842 24.2562 15.4964 24.2862 15.5075 24.324C15.5209 24.3617 15.5275 24.4029 15.5275 24.4473C15.5275 24.5251 15.5097 24.5817 15.4742 24.6173C15.4409 24.6506 15.3953 24.6673 15.3375 24.6673H14.8409ZM14.9242 24.1273V24.6006H14.3875V24.1073C14.3875 23.9562 14.4209 23.834 14.4875 23.7406C14.5542 23.6451 14.6431 23.5751 14.7542 23.5306C14.8675 23.4862 14.992 23.464 15.1275 23.464C15.292 23.464 15.4131 23.4862 15.4909 23.5306C15.5686 23.5729 15.6075 23.6462 15.6075 23.7506C15.6075 23.7951 15.5975 23.8351 15.5775 23.8706C15.5597 23.9062 15.5397 23.9329 15.5175 23.9506C15.4753 23.9395 15.4309 23.9306 15.3842 23.924C15.3397 23.9151 15.2875 23.9106 15.2275 23.9106C15.132 23.9106 15.0575 23.9273 15.0042 23.9606C14.9509 23.9917 14.9242 24.0473 14.9242 24.1273ZM14.3875 24.5173H14.9542V25.724C14.9297 25.7306 14.8942 25.7373 14.8475 25.744C14.8031 25.7506 14.7542 25.754 14.7009 25.754C14.592 25.754 14.512 25.7351 14.4609 25.6973C14.412 25.6595 14.3875 25.5895 14.3875 25.4873V24.5173ZM17.4316 24.9173C17.4316 25.0951 17.3949 25.2484 17.3216 25.3773C17.2505 25.5062 17.1494 25.6062 17.0183 25.6773C16.8894 25.7462 16.7361 25.7806 16.5583 25.7806C16.3827 25.7806 16.2294 25.7462 16.0983 25.6773C15.9672 25.6084 15.8649 25.5095 15.7916 25.3806C15.7205 25.2517 15.6849 25.0973 15.6849 24.9173C15.6849 24.7417 15.7216 24.5895 15.7949 24.4606C15.8683 24.3317 15.9705 24.2329 16.1016 24.164C16.2327 24.0929 16.3849 24.0573 16.5583 24.0573C16.7338 24.0573 16.8861 24.0929 17.0149 24.164C17.1461 24.2351 17.2483 24.3351 17.3216 24.464C17.3949 24.5929 17.4316 24.744 17.4316 24.9173ZM16.5583 24.5006C16.4672 24.5006 16.3949 24.5373 16.3416 24.6106C16.2905 24.6817 16.2649 24.784 16.2649 24.9173C16.2649 25.0551 16.2905 25.1595 16.3416 25.2306C16.3927 25.3017 16.4649 25.3373 16.5583 25.3373C16.6516 25.3373 16.7238 25.3017 16.7749 25.2306C16.8261 25.1573 16.8516 25.0529 16.8516 24.9173C16.8516 24.7862 16.8249 24.684 16.7716 24.6106C16.7205 24.5373 16.6494 24.5006 16.5583 24.5006ZM18.2914 24.584V24.964H17.7247V24.4973C17.7247 24.4329 17.7414 24.3773 17.7747 24.3306C17.8103 24.2817 17.8558 24.2395 17.9114 24.204C17.9892 24.1573 18.0803 24.1217 18.1847 24.0973C18.2892 24.0729 18.397 24.0606 18.5081 24.0606C18.7503 24.0606 18.8714 24.1462 18.8714 24.3173C18.8714 24.3573 18.8658 24.3951 18.8547 24.4306C18.8436 24.464 18.8303 24.4929 18.8147 24.5173C18.7925 24.5129 18.7658 24.5095 18.7347 24.5073C18.7036 24.5051 18.6692 24.504 18.6314 24.504C18.5758 24.504 18.517 24.5106 18.4547 24.524C18.3925 24.5373 18.3381 24.5573 18.2914 24.584ZM17.7247 24.8473H18.2914V25.724C18.267 25.7306 18.2314 25.7373 18.1847 25.744C18.1403 25.7506 18.0914 25.754 18.0381 25.754C17.9292 25.754 17.8492 25.7351 17.7981 25.6973C17.7492 25.6595 17.7247 25.5895 17.7247 25.4873V24.8473ZM20.6892 24.1973H20.6692C20.6492 24.2595 20.6269 24.3273 20.6025 24.4006C20.5781 24.474 20.5525 24.5517 20.5258 24.634C20.4992 24.714 20.4736 24.7973 20.4492 24.884L20.3758 25.2606C20.3625 25.3051 20.3503 25.3484 20.3392 25.3906C20.3303 25.4329 20.3203 25.4729 20.3092 25.5106C20.3003 25.5484 20.2914 25.5851 20.2825 25.6206C20.2736 25.6562 20.2647 25.6906 20.2558 25.724C20.2269 25.7329 20.1947 25.7417 20.1592 25.7506C20.1236 25.7595 20.0814 25.764 20.0325 25.764C19.9214 25.764 19.8381 25.7451 19.7825 25.7073C19.7269 25.6673 19.6992 25.6129 19.6992 25.544C19.6992 25.5129 19.7036 25.4817 19.7125 25.4506C19.7214 25.4195 19.7314 25.3829 19.7425 25.3406C19.7603 25.2695 19.7869 25.1784 19.8225 25.0673C19.8581 24.954 19.8969 24.8329 19.9392 24.704C19.9836 24.5729 20.0269 24.4451 20.0692 24.3206C20.1136 24.1962 20.1536 24.0851 20.1892 23.9873C20.2247 23.8873 20.2514 23.814 20.2692 23.7673C20.3069 23.7451 20.3647 23.724 20.4425 23.704C20.5203 23.684 20.5969 23.674 20.6725 23.674C20.7836 23.674 20.8825 23.6906 20.9692 23.724C21.0558 23.7551 21.1103 23.8062 21.1325 23.8773C21.1725 23.9906 21.2147 24.124 21.2592 24.2773C21.3058 24.4284 21.3525 24.5873 21.3992 24.754C21.4481 24.9184 21.4947 25.0795 21.5392 25.2373C21.5836 25.3929 21.6225 25.5329 21.6558 25.6573C21.6292 25.6862 21.5892 25.7106 21.5358 25.7306C21.4825 25.7506 21.4192 25.7606 21.3458 25.7606C21.2369 25.7606 21.1614 25.7429 21.1192 25.7073C21.0769 25.6695 21.0458 25.6129 21.0258 25.5373L20.9425 25.2173L20.8758 24.874C20.8536 24.7873 20.8314 24.704 20.8092 24.624C20.7869 24.544 20.7658 24.4684 20.7458 24.3973C20.7258 24.324 20.7069 24.2573 20.6892 24.1973ZM20.1258 25.3073L20.3558 24.8573H21.0892L21.1592 25.3073H20.1258ZM21.8763 25.084V24.864H22.443V25.084C22.443 25.1729 22.4652 25.2373 22.5096 25.2773C22.5563 25.3173 22.6207 25.3373 22.703 25.3373C22.7541 25.3373 22.7963 25.3329 22.8296 25.324C22.863 25.3151 22.8874 25.3062 22.903 25.2973V24.864H23.4696V25.3806C23.4696 25.4362 23.4574 25.4851 23.433 25.5273C23.4107 25.5673 23.3763 25.6017 23.3296 25.6306C23.2519 25.6795 23.1585 25.7162 23.0496 25.7406C22.943 25.7673 22.8263 25.7806 22.6996 25.7806C22.5396 25.7806 22.3974 25.7573 22.273 25.7106C22.1485 25.6617 22.0507 25.5862 21.9796 25.484C21.9107 25.3817 21.8763 25.2484 21.8763 25.084ZM23.4696 25.0073H22.903V24.114C22.9274 24.1073 22.9619 24.1006 23.0063 24.094C23.053 24.0873 23.103 24.084 23.1563 24.084C23.2674 24.084 23.3474 24.1029 23.3963 24.1406C23.4452 24.1762 23.4696 24.2462 23.4696 24.3506V25.0073ZM22.443 25.0073H21.8763V24.114C21.9007 24.1073 21.9352 24.1006 21.9796 24.094C22.0263 24.0873 22.0763 24.084 22.1296 24.084C22.2407 24.084 22.3207 24.1029 22.3696 24.1406C22.4185 24.1762 22.443 24.2462 22.443 24.3506V25.0073ZM23.8397 24.8473H24.3997V25.1706C24.3997 25.2262 24.4175 25.2673 24.4531 25.294C24.4908 25.3184 24.5431 25.3306 24.6097 25.3306C24.6431 25.3306 24.6775 25.3284 24.7131 25.324C24.7486 25.3173 24.7797 25.3095 24.8064 25.3006C24.8264 25.3229 24.8431 25.3495 24.8564 25.3806C24.872 25.4117 24.8797 25.4484 24.8797 25.4906C24.8797 25.5729 24.8475 25.6417 24.7831 25.6973C24.7208 25.7506 24.6097 25.7773 24.4497 25.7773C24.2542 25.7773 24.1031 25.7329 23.9964 25.644C23.892 25.5551 23.8397 25.4106 23.8397 25.2106V24.8473ZM24.2064 24.5773V24.144H24.8364C24.8497 24.1662 24.862 24.1962 24.8731 24.234C24.8864 24.2717 24.8931 24.3129 24.8931 24.3573C24.8931 24.4351 24.8753 24.4917 24.8397 24.5273C24.8064 24.5606 24.7608 24.5773 24.7031 24.5773H24.2064ZM24.3997 24.9273H23.8397V23.7306C23.8642 23.724 23.8986 23.7173 23.9431 23.7106C23.9897 23.7017 24.0386 23.6973 24.0897 23.6973C24.1986 23.6973 24.2775 23.7162 24.3264 23.754C24.3753 23.7917 24.3997 23.8617 24.3997 23.964V24.9273ZM26.8383 24.9173C26.8383 25.0951 26.8016 25.2484 26.7283 25.3773C26.6571 25.5062 26.556 25.6062 26.4249 25.6773C26.296 25.7462 26.1427 25.7806 25.9649 25.7806C25.7894 25.7806 25.636 25.7462 25.5049 25.6773C25.3738 25.6084 25.2716 25.5095 25.1983 25.3806C25.1271 25.2517 25.0916 25.0973 25.0916 24.9173C25.0916 24.7417 25.1283 24.5895 25.2016 24.4606C25.2749 24.3317 25.3771 24.2329 25.5083 24.164C25.6394 24.0929 25.7916 24.0573 25.9649 24.0573C26.1405 24.0573 26.2927 24.0929 26.4216 24.164C26.5527 24.2351 26.6549 24.3351 26.7283 24.464C26.8016 24.5929 26.8383 24.744 26.8383 24.9173ZM25.9649 24.5006C25.8738 24.5006 25.8016 24.5373 25.7483 24.6106C25.6971 24.6817 25.6716 24.784 25.6716 24.9173C25.6716 25.0551 25.6971 25.1595 25.7483 25.2306C25.7994 25.3017 25.8716 25.3373 25.9649 25.3373C26.0583 25.3373 26.1305 25.3017 26.1816 25.2306C26.2327 25.1573 26.2583 25.0529 26.2583 24.9173C26.2583 24.7862 26.2316 24.684 26.1783 24.6106C26.1271 24.5373 26.056 24.5006 25.9649 24.5006ZM27.7296 25.314C27.8385 25.314 27.9152 25.2962 27.9596 25.2606C28.004 25.2251 28.0263 25.1851 28.0263 25.1406C28.0263 25.0962 28.0085 25.0617 27.9729 25.0373C27.9374 25.0106 27.8874 24.9862 27.8229 24.964L27.6829 24.9173C27.554 24.8729 27.4396 24.8262 27.3396 24.7773C27.2418 24.7262 27.1652 24.6606 27.1096 24.5806C27.054 24.5006 27.0263 24.3962 27.0263 24.2673C27.0263 24.0784 27.0985 23.9273 27.2429 23.814C27.3896 23.7006 27.594 23.644 27.8563 23.644C27.9852 23.644 28.0996 23.6562 28.1996 23.6806C28.2996 23.7051 28.3785 23.7429 28.4363 23.794C28.494 23.8429 28.5229 23.9062 28.5229 23.984C28.5229 24.0395 28.5096 24.0884 28.4829 24.1306C28.4563 24.1729 28.424 24.2084 28.3863 24.2373C28.3374 24.2062 28.2718 24.1795 28.1896 24.1573C28.1074 24.1329 28.0174 24.1206 27.9196 24.1206C27.8196 24.1206 27.7463 24.1351 27.6996 24.164C27.6529 24.1906 27.6296 24.2251 27.6296 24.2673C27.6296 24.3006 27.644 24.3284 27.6729 24.3506C27.704 24.3706 27.7474 24.3895 27.8029 24.4073L27.9796 24.464C28.1907 24.5306 28.3518 24.6173 28.4629 24.724C28.574 24.8284 28.6296 24.9695 28.6296 25.1473C28.6296 25.3362 28.554 25.4906 28.4029 25.6106C28.254 25.7284 28.0363 25.7873 27.7496 25.7873C27.614 25.7873 27.4918 25.7729 27.3829 25.744C27.274 25.7151 27.1874 25.6717 27.1229 25.614C27.0585 25.5562 27.0263 25.4862 27.0263 25.404C27.0263 25.3395 27.0452 25.2851 27.0829 25.2406C27.1207 25.194 27.1618 25.1584 27.2063 25.134C27.2685 25.1829 27.344 25.2251 27.4329 25.2606C27.524 25.2962 27.6229 25.314 27.7296 25.314ZM29.7458 25.7773C29.6658 25.7773 29.5947 25.7684 29.5324 25.7506C29.4724 25.7329 29.4158 25.7117 29.3624 25.6873V25.214C29.4002 25.2429 29.4436 25.2695 29.4924 25.294C29.5413 25.3184 29.5969 25.3306 29.6591 25.3306C29.7702 25.3306 29.8547 25.2951 29.9124 25.224C29.9724 25.1506 30.0024 25.0451 30.0024 24.9073C30.0024 24.8117 29.9902 24.7351 29.9658 24.6773C29.9413 24.6173 29.9047 24.5729 29.8558 24.544C29.8091 24.5151 29.7502 24.5006 29.6791 24.5006C29.6369 24.5006 29.598 24.5062 29.5624 24.5173C29.5269 24.5262 29.4969 24.5373 29.4724 24.5506V25.544H28.9091V24.4606C28.9091 24.4006 28.9213 24.3506 28.9458 24.3106C28.9724 24.2706 29.008 24.2362 29.0524 24.2073C29.1213 24.1629 29.2102 24.1273 29.3191 24.1006C29.428 24.0717 29.548 24.0573 29.6791 24.0573C29.8591 24.0573 30.0169 24.0873 30.1524 24.1473C30.288 24.2051 30.3936 24.2973 30.4691 24.424C30.5447 24.5484 30.5824 24.7095 30.5824 24.9073C30.5824 25.0962 30.5458 25.2551 30.4724 25.384C30.3991 25.5129 30.2991 25.6106 30.1724 25.6773C30.048 25.744 29.9058 25.7773 29.7458 25.7773ZM29.4758 25.4073V26.3206C29.4513 26.3273 29.4158 26.334 29.3691 26.3406C29.3247 26.3473 29.2758 26.3506 29.2224 26.3506C29.1136 26.3506 29.0336 26.3317 28.9824 26.294C28.9336 26.2562 28.9091 26.1862 28.9091 26.084V25.4073H29.4758ZM30.8623 23.6573C30.8623 23.5729 30.8912 23.5017 30.949 23.444C31.0068 23.3862 31.0812 23.3573 31.1723 23.3573C31.2634 23.3573 31.3379 23.3862 31.3956 23.444C31.4534 23.5017 31.4823 23.5729 31.4823 23.6573C31.4823 23.7395 31.4534 23.8106 31.3956 23.8706C31.3379 23.9284 31.2634 23.9573 31.1723 23.9573C31.0812 23.9573 31.0068 23.9284 30.949 23.8706C30.8912 23.8106 30.8623 23.7395 30.8623 23.6573ZM30.889 24.8473H31.4556V25.724C31.4312 25.7306 31.3956 25.7373 31.349 25.744C31.3045 25.7506 31.2556 25.754 31.2023 25.754C31.0934 25.754 31.0134 25.7351 30.9623 25.6973C30.9134 25.6595 30.889 25.5895 30.889 25.4873V24.8473ZM31.4556 25.144H30.889V24.1306C30.9134 24.124 30.9479 24.1173 30.9923 24.1106C31.039 24.104 31.089 24.1006 31.1423 24.1006C31.2534 24.1006 31.3334 24.1195 31.3823 24.1573C31.4312 24.1929 31.4556 24.2629 31.4556 24.3673V25.144ZM33.4264 24.684V24.9906H32.8597V24.7006C32.8597 24.6317 32.8386 24.5817 32.7964 24.5506C32.7564 24.5173 32.7031 24.5006 32.6364 24.5006C32.592 24.5006 32.5497 24.5062 32.5097 24.5173C32.472 24.5284 32.4353 24.5429 32.3997 24.5606V24.9906H31.8331V24.484C31.8331 24.424 31.8453 24.3751 31.8697 24.3373C31.8964 24.2995 31.932 24.2651 31.9764 24.234C32.052 24.1806 32.1475 24.1384 32.2631 24.1073C32.3786 24.074 32.5053 24.0573 32.6431 24.0573C32.8942 24.0573 33.0875 24.1129 33.2231 24.224C33.3586 24.3329 33.4264 24.4862 33.4264 24.684ZM31.8331 24.8473H32.3997V25.724C32.3753 25.7306 32.3397 25.7373 32.2931 25.744C32.2486 25.7506 32.1997 25.754 32.1464 25.754C32.0375 25.754 31.9575 25.7351 31.9064 25.6973C31.8575 25.6595 31.8331 25.5895 31.8331 25.4873V24.8473ZM32.8597 24.8473H33.4264V25.724C33.402 25.7306 33.3664 25.7373 33.3197 25.744C33.2753 25.7506 33.2264 25.754 33.1731 25.754C33.0642 25.754 32.9842 25.7351 32.9331 25.6973C32.8842 25.6595 32.8597 25.5895 32.8597 25.4873V24.8473Z" fill="white"/>
<path d="M12.131 16.8884C12.4477 16.8884 12.6708 16.8367 12.8001 16.7332C12.9293 16.6298 12.994 16.5134 12.994 16.3842C12.994 16.2549 12.9423 16.1547 12.8388 16.0835C12.7354 16.006 12.59 15.9349 12.4025 15.8702L11.9952 15.7345C11.6203 15.6052 11.2873 15.4694 10.9964 15.3272C10.712 15.1785 10.4889 14.9878 10.3273 14.7551C10.1657 14.5223 10.0849 14.2185 10.0849 13.8435C10.0849 13.2941 10.295 12.8545 10.7152 12.5248C11.1419 12.1951 11.7366 12.0302 12.4994 12.0302C12.8744 12.0302 13.2073 12.0658 13.4982 12.1369C13.7891 12.208 14.0186 12.3179 14.1867 12.4666C14.3548 12.6088 14.4388 12.793 14.4388 13.0193C14.4388 13.1809 14.4001 13.3231 14.3225 13.446C14.2449 13.5688 14.1512 13.6722 14.0413 13.7563C13.899 13.6658 13.7083 13.5882 13.4691 13.5235C13.23 13.4524 12.9681 13.4169 12.6837 13.4169C12.3928 13.4169 12.1794 13.4589 12.0437 13.5429C11.9079 13.6205 11.8401 13.7207 11.8401 13.8435C11.8401 13.9405 11.8821 14.0213 11.9661 14.086C12.0566 14.1442 12.1827 14.1991 12.3443 14.2508L12.8582 14.4157C13.4724 14.6096 13.9411 14.8617 14.2643 15.172C14.5875 15.4759 14.7491 15.8864 14.7491 16.4035C14.7491 16.953 14.5293 17.4023 14.0897 17.7514C13.6566 18.0941 13.0231 18.2654 12.1891 18.2654C11.7948 18.2654 11.4392 18.2233 11.1225 18.1393C10.8057 18.0553 10.5536 17.9292 10.3661 17.7611C10.1786 17.593 10.0849 17.3894 10.0849 17.1502C10.0849 16.9627 10.1398 16.8044 10.2497 16.6751C10.3596 16.5393 10.4792 16.4359 10.6085 16.3648C10.7895 16.507 11.0093 16.6298 11.2679 16.7332C11.533 16.8367 11.8207 16.8884 12.131 16.8884ZM17.3555 14.9393H17.821C18.086 14.9393 18.2993 14.8747 18.461 14.7454C18.629 14.6096 18.7131 14.4189 18.7131 14.1732C18.7131 13.9276 18.6355 13.7401 18.4804 13.6108C18.3317 13.4751 18.1119 13.4072 17.821 13.4072C17.7175 13.4072 17.6303 13.4104 17.5591 13.4169C17.4945 13.4169 17.4266 13.4233 17.3555 13.4363V14.9393ZM17.9276 16.2678H15.6682V12.7672C15.6682 12.6314 15.707 12.528 15.7846 12.4569C15.8622 12.3793 15.9624 12.3179 16.0852 12.2726C16.305 12.1951 16.5668 12.1401 16.8707 12.1078C17.1745 12.069 17.446 12.0496 17.6852 12.0496C18.5709 12.0496 19.2496 12.2403 19.7216 12.6217C20.2 13.0031 20.4391 13.5203 20.4391 14.1732C20.4391 14.5934 20.3357 14.9619 20.1288 15.2787C19.922 15.589 19.6311 15.8314 19.2561 16.006C18.8812 16.1805 18.4383 16.2678 17.9276 16.2678ZM15.6682 15.5308H17.3652V18.0811C17.2941 18.1005 17.1842 18.1199 17.0355 18.1393C16.8868 18.1587 16.7349 18.1684 16.5797 18.1684C16.2436 18.1684 16.0076 18.1102 15.8719 17.9939C15.7361 17.871 15.6682 17.6609 15.6682 17.3635V15.5308ZM21.3027 13.8048H22.9997V18.0811C22.9286 18.1005 22.8187 18.1199 22.67 18.1393C22.5213 18.1587 22.3694 18.1684 22.2142 18.1684C21.8781 18.1684 21.6421 18.1102 21.5063 17.9939C21.3706 17.871 21.3027 17.6609 21.3027 17.3635V13.8048ZM22.9997 16.0448H21.3027V12.1951C21.3803 12.1821 21.4934 12.166 21.6421 12.1466C21.7972 12.1207 21.9459 12.1078 22.0882 12.1078C22.4114 12.1078 22.6441 12.1627 22.7863 12.2726C22.9286 12.3825 22.9997 12.5959 22.9997 12.9126V16.0448ZM24.2572 14.212H25.8185C25.8443 14.5094 25.8605 14.7939 25.8669 15.0654C25.8799 15.3369 25.8863 15.5955 25.8863 15.8411C25.8863 16.0803 25.8863 16.3163 25.8863 16.549V18.0908C25.8217 18.1037 25.715 18.1199 25.5663 18.1393C25.4241 18.1587 25.2787 18.1684 25.13 18.1684C24.8067 18.1684 24.5805 18.1134 24.4512 18.0035C24.3219 17.8872 24.2572 17.6835 24.2572 17.3926V14.212ZM29.5809 16.0545H28.0197C27.9809 15.6019 27.9583 15.185 27.9518 14.8035C27.9518 14.4221 27.9518 14.0601 27.9518 13.7175V12.1854C28.0229 12.1724 28.1296 12.1563 28.2718 12.1369C28.414 12.1175 28.5595 12.1078 28.7082 12.1078C29.0314 12.1078 29.2577 12.166 29.3869 12.2823C29.5162 12.3922 29.5809 12.5926 29.5809 12.8835V16.0545ZM29.5809 15.5308V17.8872C29.4904 17.9712 29.3579 18.0391 29.1833 18.0908C29.0152 18.1425 28.8116 18.1684 28.5724 18.1684C28.3332 18.1684 28.1069 18.1328 27.8936 18.0617C27.6803 17.9906 27.5057 17.8193 27.37 17.5478L26.41 15.589C26.3453 15.4532 26.2839 15.3272 26.2257 15.2108C26.174 15.088 26.1223 14.9619 26.0706 14.8326C26.0189 14.7033 25.9607 14.5611 25.896 14.406L24.2572 14.7648V12.5151C24.3478 12.3858 24.4867 12.2888 24.6742 12.2242C24.8617 12.1595 25.0621 12.1272 25.2754 12.1272C25.5146 12.1272 25.7409 12.166 25.9542 12.2435C26.174 12.3147 26.3486 12.4827 26.4779 12.7478L27.4476 14.7066C27.5122 14.8359 27.5704 14.9619 27.6221 15.0848C27.6803 15.2076 27.7352 15.3336 27.7869 15.4629C27.8451 15.5922 27.9033 15.7345 27.9615 15.8896L29.5809 15.5308Z" fill="white"/>
<defs>
<linearGradient id="paint0_linear_7791_15014" x1="20.0001" y1="21.212" x2="20.0001" y2="26.6665" gradientUnits="userSpaceOnUse">
<stop stop-color="#EB213C"/>
<stop offset="1" stop-color="#AF293B"/>
</linearGradient>
<linearGradient id="paint1_linear_7791_15014" x1="20.0001" y1="6.06055" x2="20.0001" y2="21.8181" gradientUnits="userSpaceOnUse">
<stop stop-color="#EB213C"/>
<stop offset="1" stop-color="#FF5C72"/>
</linearGradient>
</defs>
</svg>
