<svg width="32" height="36" viewBox="0 0 32 36" fill="none" xmlns="http://www.w3.org/2000/svg">
<path d="M22.5649 25.4639C22.3642 25.765 18.8049 23.4748 16.2786 25.5348C13.7523 27.5948 12.2708 26.3257 13.6992 24.3424C15.1276 22.3592 20.8059 21.9165 22.9191 24.1595C24.1999 25.5289 22.5649 25.4639 22.5649 25.4639Z" fill="url(#paint0_linear_7775_3486)"/>
<path d="M25.717 26.2724C23.7101 27.6477 22.7303 29.1529 23.3914 30.5105C24.7608 33.3201 30.6102 35.4982 31.0943 34.5597C31.8144 33.1666 30.2974 23.1322 25.717 26.2724ZM25.475 30.233C24.5542 28.9168 26.0593 26.5911 27.4228 27.3998C28.0308 27.7658 29.1287 29.1706 28.627 30.1681C28.1312 31.1657 26.3958 31.5493 25.475 30.233Z" fill="url(#paint1_linear_7775_3486)"/>
<path d="M29.111 35.0262C28.9576 35.0203 28.8631 35.0084 28.8631 35.0084C28.8631 35.0084 28.8631 34.8963 28.8572 34.6956C28.8395 33.6863 28.7156 30.4693 27.9955 28.7989C27.1278 26.8097 24.3831 26.3316 24.3831 26.3316C24.3831 26.3257 24.389 26.3257 24.389 26.3257C24.5188 26.2195 26.0771 24.9917 28.3791 25.883C30.7815 26.8097 31.2478 33.9106 31.0884 34.5598C30.9645 35.0734 29.6659 35.0557 29.111 35.0262Z" fill="url(#paint2_linear_7775_3486)"/>
<path d="M29.4948 34.7191C30.085 33.0309 28.6271 23.9232 24.3949 26.3315C24.3949 26.3374 24.389 26.3374 24.389 26.3374C24.2828 26.3964 24.1824 26.4613 24.0762 26.5322C22.996 27.2759 22.4353 28.055 22.2523 28.8283C22.2523 28.8283 22.2464 28.846 22.2405 28.8814C21.5499 32.1514 27.541 35.3034 29.1111 35.026C29.2764 34.9965 29.3885 34.9316 29.4476 34.8194C29.4653 34.7899 29.4771 34.7604 29.4948 34.7191ZM23.8342 30.4928C22.9134 29.1765 24.4185 26.8509 25.782 27.6596C26.39 28.0255 27.4879 29.4303 26.9862 30.4279C26.4904 31.4254 24.755 31.815 23.8342 30.4928Z" fill="url(#paint3_linear_7775_3486)"/>
<g style="mix-blend-mode:multiply" opacity="0.3">
<path d="M27.1689 25.7885C26.6259 25.8888 28.8571 28.0728 29.0518 29.3477C29.2407 30.6286 30.4626 30.5401 30.6928 30.2863C30.923 30.0383 30.0612 27.5002 29.2702 26.5794C28.4793 25.6704 27.1689 25.7885 27.1689 25.7885Z" fill="#FF8390"/>
</g>
<path opacity="0.8" d="M23.8812 28.3974C23.2792 29.9852 24.0937 29.932 24.7017 29.0348C25.3097 28.1376 25.7819 27.6595 25.7819 27.6595C25.7819 27.6595 24.7961 26.9571 23.8812 28.3974Z" fill="#D42F55"/>
<path opacity="0.8" d="M29.1111 35.026C27.541 35.3034 21.5499 32.1514 22.2405 28.8813C22.1874 29.1942 22.0634 30.8705 24.5366 32.7712C26.4785 34.2586 27.9601 34.6246 28.8573 34.6954C29.117 34.719 29.3295 34.719 29.4889 34.7131C29.5597 34.7072 29.6187 34.7072 29.666 34.7072C30.2149 34.6895 31.0885 34.5597 31.0885 34.5597C30.9645 35.0732 29.666 35.0555 29.1111 35.026Z" fill="#D42F55"/>
<g style="mix-blend-mode:multiply" opacity="0.8">
<path d="M23.415 27.2109C22.5709 28.2616 22.5355 28.5331 22.9074 28.9345C23.2792 29.3359 23.7396 26.9217 25.6757 27.4883C27.6118 28.055 27.5468 29.9143 26.8739 31.1125C26.201 32.3108 28.6034 34.5538 29.2527 34.5597C29.902 34.5597 29.6364 30.3275 28.3142 27.996C26.992 25.6526 24.8907 25.3752 23.415 27.2109Z" fill="#D42F55"/>
</g>
<g style="mix-blend-mode:multiply">
<path d="M25.9353 25.9006C25.9353 25.9006 27.4405 26.0659 28.196 27.211C28.9515 28.3561 29.3824 31.1835 29.3824 31.1835C29.3824 31.1835 28.7745 26.5794 25.9353 25.9006Z" fill="#FF7A7A"/>
</g>
<path d="M26.2186 28.0256C26.2186 28.0256 25.4749 30.0029 23.8635 29.4186C22.6771 28.9877 21.8271 27.5592 22.0514 26.243C22.134 25.7708 22.3524 25.3104 22.7479 24.9149C23.6746 23.9941 24.7548 24.484 25.4454 24.9916C25.8645 25.2986 26.136 25.6114 26.136 25.6114C26.136 25.6114 24.5069 26.1367 24.1763 26.5499C23.8458 26.969 24.194 27.5711 24.8846 27.3999C25.5693 27.2346 26.2186 28.0256 26.2186 28.0256Z" fill="url(#paint4_linear_7775_3486)"/>
<g style="mix-blend-mode:multiply" opacity="0.8">
<path d="M19.7553 23.2032C22.0987 23.7876 21.7799 24.4959 21.107 24.6848C20.4341 24.8737 19.8852 24.4133 18.4272 24.6848C16.9693 24.9563 18.0318 22.7723 19.7553 23.2032Z" fill="#B32A55"/>
</g>
<g style="mix-blend-mode:multiply" opacity="0.8">
<path d="M26.2186 28.0257C26.2186 28.0257 25.4749 30.003 23.8635 29.4187C22.6771 28.9878 21.8271 27.5593 22.0514 26.2431H22.0573C22.2049 27.6774 22.7774 27.0104 23.8281 25.4816C24.3357 24.732 24.9555 24.7615 25.4513 24.9917C25.8704 25.2986 26.1419 25.6115 26.1419 25.6115C26.1419 25.6115 24.5128 26.1368 24.1822 26.55C23.8517 26.9691 24.1999 27.5712 24.8905 27.4C25.5693 27.2347 26.2186 28.0257 26.2186 28.0257Z" fill="#B32A55"/>
</g>
<path d="M22.388 5.70774C22.205 7.25422 21.2842 10.058 20.3575 13.1745C20.3575 13.1745 20.3575 13.1745 20.3575 13.1804C20.3575 13.1863 20.3516 13.1922 20.3516 13.1981C20.1037 14.0422 19.8499 14.9099 19.6138 15.7776C19.3895 16.604 19.1711 17.4362 18.9822 18.2508C18.9822 18.2508 18.9763 18.2744 18.9645 18.3275C18.9586 18.357 18.9527 18.3806 18.9468 18.4161C18.9468 18.422 18.9468 18.422 18.9409 18.4279C18.8346 18.9001 18.7343 19.3723 18.6457 19.8327C18.628 19.9212 18.6103 20.0098 18.5985 20.0865C18.5631 20.2636 18.5336 20.4406 18.5041 20.6118C18.4982 20.6295 18.4982 20.6531 18.4982 20.6708C18.4805 20.7771 18.4628 20.8892 18.4451 20.9955C18.4273 21.1017 18.4096 21.2139 18.3978 21.3201C18.3919 21.3378 18.3919 21.3555 18.3919 21.3674C18.3506 21.6507 18.3211 21.9281 18.2916 22.1996C18.268 22.4711 18.2444 22.7427 18.2326 23.0024C18.1912 23.8228 18.1794 24.5961 18.1912 25.3162C18.1912 25.4461 18.1971 25.5759 18.1971 25.6999V25.7589C18.2149 26.3669 18.2444 26.9335 18.2857 27.4588C18.2857 27.4588 18.2916 27.4825 18.2916 27.5297C18.3152 27.9133 18.3565 28.2734 18.3919 28.6158C18.6812 31.1539 19.1711 32.5646 19.1711 32.7889C19.1711 33.149 18.2267 36.1947 14.0771 35.9999C14.0476 35.9999 14.0181 35.994 13.9886 35.994C13.3157 35.9586 12.6664 35.8465 12.0525 35.6812C12.0525 35.6812 12.0525 35.6812 12.0466 35.6812C8.89464 34.8489 6.59852 32.6945 6.56901 32.2281C6.5572 31.992 6.81692 31.1421 7.05893 29.8848C7.30093 28.6099 7.50752 26.9099 7.37176 25.0034C7.35406 24.7555 7.33044 24.5016 7.29503 24.2419C7.24781 23.811 7.17107 23.3801 7.08254 22.9374C7.02351 22.66 6.95268 22.3531 6.85824 22.0225C6.65165 21.2611 6.36242 20.3757 6.02597 19.4136C6.02007 19.4077 6.02007 19.4077 6.02007 19.4077C5.95514 19.2129 5.88431 19.0181 5.80757 18.8174C5.73084 18.6108 5.6541 18.4042 5.57737 18.1918C3.48785 12.5784 0.146973 5.35358 0.146973 5.35358C2.68509 -0.572636 9.21928 0.578372 9.21928 0.578372L9.59705 1.78841L9.76232 2.31964C13.8469 1.42245 17.6954 1.84153 20.0506 2.81546C20.0388 2.88039 20.0388 2.96303 20.0447 3.04566C20.0506 3.1283 20.0565 3.22274 20.0683 3.31718C20.0742 3.34079 20.0742 3.37031 20.0801 3.39982C20.1745 3.97827 20.3988 4.61576 20.3988 4.61576C20.6054 4.83415 20.9064 4.67478 21.1839 4.42687C21.2193 4.40326 21.2488 4.36785 21.2842 4.33243C21.2901 4.32653 21.296 4.32653 21.3019 4.32063C21.479 4.14355 21.6384 3.94876 21.7387 3.8189C22.0988 4.14945 22.329 4.50951 22.3998 4.86957V4.87547C22.4057 4.92269 22.4116 4.97581 22.4175 5.02894C22.4293 5.21782 22.4175 5.44212 22.388 5.70774Z" fill="url(#paint5_linear_7775_3486)"/>
<path d="M6.35644 7.39597C6.36825 7.4609 6.51581 8.21643 6.81094 8.48795C3.9895 7.99213 1.58123 7.13625 0.50696 5.87309C-2.21414 2.68569 6.90539 0 6.90539 0L9.21921 0.578456C9.21921 0.578456 2.05935 1.56419 1.2684 4.28529C0.902435 5.54845 3.18084 6.66404 6.35644 7.39597C6.35644 7.39006 6.35644 7.39006 6.35644 7.39597Z" fill="#FFC59F"/>
<path d="M9.29588 6.5991C2.86795 6.19772 1.30376 3.08705 9.59102 1.78847C10.441 1.65271 11.4031 1.54056 12.4715 1.45202C16.2196 1.13328 18.805 1.635 20.3987 2.49679C20.1744 2.43776 20.074 2.58532 20.0504 2.81553C20.0386 2.88045 20.0386 2.96309 20.0445 3.04573C18.6338 2.18985 16.1606 1.68813 12.3711 2.0718C6.50985 2.65616 4.07208 4.04917 5.69529 4.91095C5.7189 4.92866 5.74252 4.94046 5.77203 4.95227C5.77793 4.95817 5.78383 4.96407 5.79564 4.96407C5.84876 4.98769 5.91369 5.0172 5.97272 5.04081C6.53346 5.26511 7.40115 5.44809 8.59347 5.54843C8.6407 5.55434 8.68792 5.56024 8.72923 5.56024C9.27818 5.60746 9.89205 5.63697 10.5827 5.65468C11.7868 5.67829 12.6899 5.63107 13.3569 5.53663C15.5408 5.23559 15.2929 4.49777 15.2929 4.49777L17.713 4.85783L17.7071 4.86373C17.6363 4.98178 16.1842 7.02409 9.29588 6.5991Z" fill="#FFC59F"/>
<path d="M22.388 5.70779C22.1696 6.88241 21.0717 7.95078 19.2891 8.41708C16.8867 9.04276 12.873 9.20213 9.1189 8.81256C9.21924 8.38167 9.29598 7.98029 9.30778 7.93897C11.716 8.26952 14.3073 8.40528 16.509 8.25181C16.509 8.25181 16.5267 8.25181 16.5621 8.24591C16.6093 8.24 16.6624 8.24 16.7096 8.2341C16.7274 8.2341 16.751 8.2341 16.7746 8.2282C17.2586 8.19278 17.7249 8.13966 18.1617 8.06883C18.6103 7.998 19.0235 7.88585 19.3894 7.74419C19.4071 7.73828 19.4248 7.73238 19.4426 7.72648C20.2335 7.40774 20.8238 6.93553 21.1661 6.39249C21.3845 6.04423 21.5026 5.67237 21.5144 5.2946C21.5203 5.2887 21.5203 5.2828 21.5203 5.2769C21.5203 5.25919 21.5262 5.24738 21.5203 5.22967C21.5203 5.01128 21.4849 4.78698 21.4022 4.56268C21.3786 4.48595 21.3491 4.40921 21.3078 4.32658C21.4849 4.1495 21.6442 3.95471 21.7446 3.82485C21.8154 3.73041 21.8508 3.67139 21.8508 3.67139C22.1519 4.05506 22.3289 4.46234 22.3998 4.87552V4.88142C22.4057 4.92864 22.4116 4.98177 22.4175 5.03489C22.4411 5.25919 22.4293 5.48349 22.388 5.70779Z" fill="#FFC59F"/>
<path d="M19.6846 21.7688C19.4721 22.9375 19.0353 24.2597 18.1971 25.3045C18.1912 25.3163 18.1853 25.3222 18.1794 25.3281C17.2763 26.4437 15.9069 27.2228 13.8705 27.1107C11.2911 26.9749 8.89464 25.7059 7.30684 24.2361C6.66936 23.6458 6.15583 23.0143 5.81938 22.4122C5.33537 21.5563 5.34127 20.7359 5.50654 20.1692C5.6305 19.7501 5.84889 19.4668 6.03187 19.4078C6.03187 19.4078 6.03187 19.4137 6.03778 19.4137C6.07319 19.4786 6.36242 20.0216 6.59262 20.2932C6.62213 20.3286 6.70477 20.4348 6.83463 20.5942C7.15927 20.9897 7.76724 21.7098 8.56999 22.4653C8.68214 22.5716 8.79429 22.6778 8.91825 22.7841C9.35504 23.1795 9.84496 23.5691 10.3644 23.9174C11.6157 24.7614 13.056 25.3635 14.4962 25.1628C16.7215 24.8559 17.6895 23.4806 18.1322 22.2941C18.2562 21.9577 18.3388 21.6331 18.3978 21.3556H18.4037C18.4096 21.3379 18.4096 21.3202 18.4155 21.3025C18.4392 21.1786 18.4569 21.0723 18.4687 20.972C18.4864 20.848 18.4982 20.7477 18.51 20.6532C18.51 20.6355 18.5159 20.6119 18.5159 20.5942C18.5218 20.5411 18.5277 20.4939 18.5336 20.4584C18.5513 20.364 18.5749 20.2341 18.6103 20.0689C18.6221 19.9921 18.6457 19.9036 18.6575 19.8151C18.7579 19.3133 18.8937 18.7054 18.9527 18.4102C18.9586 18.4043 18.9586 18.4043 18.9586 18.3984C18.9704 18.363 18.9763 18.3335 18.9763 18.3099C18.9881 18.2627 18.994 18.2332 18.994 18.2332C18.994 18.2332 19.4131 18.3689 19.7436 18.9533C19.7495 18.9592 19.7495 18.9592 19.7495 18.9651C19.8027 19.0654 19.844 19.3487 19.8558 19.756C19.8617 20.2814 19.8204 20.9897 19.6846 21.7688Z" fill="url(#paint6_linear_7775_3486)"/>
<path d="M19.8439 19.7678C19.4897 20.3404 19.0234 20.8775 18.3978 21.3556L18.3919 21.3615H18.3859C15.7711 23.3684 11.6747 23.451 8.91226 22.79C8.0859 22.5952 7.37759 22.3295 6.86406 22.0285C6.59844 21.875 6.39185 21.7157 6.24429 21.5504C5.78388 21.0428 5.57729 20.5765 5.50646 20.181C5.3589 19.3487 5.8193 18.8234 5.8193 18.8234C6.00228 19.3133 6.31512 19.815 6.84045 20.2282C7.82028 20.9956 9.53204 21.4205 12.4656 20.789C16.9575 19.8268 19.2064 16.7044 19.3304 16.2026L19.3658 16.0846L19.413 15.9252L19.4425 15.8308C19.7022 15.0221 20.2807 13.3871 20.3574 13.1864C20.3633 13.1805 20.3633 13.1746 20.3633 13.1687C20.3574 13.1746 21.6442 16.8578 19.8439 19.7678Z" fill="url(#paint7_linear_7775_3486)"/>
<path opacity="0.3" d="M21.5144 5.22388C21.5203 5.24159 21.5144 5.25339 21.5144 5.2711C21.5144 5.277 21.5144 5.2829 21.5085 5.28881C21.4966 5.5013 21.4553 5.69609 21.3845 5.87317C21.3786 5.88497 21.3727 5.89678 21.3727 5.90858C20.8178 7.37243 18.7696 7.92727 17.5124 8.13386H17.5006C17.1995 8.18108 16.9398 8.2106 16.7687 8.22831C16.745 8.23421 16.7273 8.23421 16.7037 8.23421C16.6388 8.24011 16.5916 8.24601 16.5562 8.24601C16.5207 8.25192 16.503 8.25192 16.503 8.25192L16.5385 8.15747L17.7131 4.86972L17.719 4.86382L15.2989 4.50376C15.2989 4.50376 15.3166 4.45654 15.3048 4.43293C15.293 4.41522 15.2635 4.41522 15.1927 4.46244C15.1631 4.48015 15.1395 4.49786 15.1218 4.51557C15.1159 4.52147 15.1159 4.52147 15.1159 4.52147C15.0687 4.55688 15.0097 4.6041 14.9389 4.67494C14.9389 4.67494 14.9329 4.67494 14.9329 4.68084C14.8267 4.78118 14.685 4.92285 14.5021 5.11173C14.3132 5.31242 13.9059 5.45998 13.3688 5.54852C12.1823 5.76102 10.3407 5.73741 8.74111 5.57213C8.69389 5.56623 8.64667 5.56623 8.60535 5.56033C7.51337 5.44228 6.54534 5.2652 5.9846 5.0527C5.91967 5.02909 5.86064 5.00548 5.80752 4.97597C5.78391 4.96416 5.778 4.95826 5.7721 4.95236C5.74259 4.94055 5.71898 4.92875 5.69537 4.91104C4.42631 4.17912 7.05297 2.80971 11.4563 2.40834C12.3299 2.3316 13.2035 2.29028 14.0476 2.29028H14.1184C14.6968 2.29028 15.2989 2.30799 15.8892 2.36111C16.0072 2.36702 16.1253 2.37882 16.2374 2.39063C16.2787 2.39653 16.326 2.39653 16.3673 2.40243C17.8547 2.55 19.1533 2.85103 20.0682 3.31734C20.0741 3.34095 20.0741 3.37046 20.08 3.39997C20.1745 3.97843 20.3988 4.61591 20.3988 4.61591C20.6054 4.83431 20.9064 4.67494 21.1838 4.42703C21.2192 4.40342 21.2487 4.368 21.2842 4.33259C21.3314 4.40342 21.3668 4.48015 21.3904 4.55098C21.4848 4.76348 21.5262 4.98777 21.5144 5.22388Z" fill="#C60055"/>
<g style="mix-blend-mode:multiply" opacity="0.3">
<path d="M4.21386 6.35699C4.21386 6.35699 3.67082 5.40667 3.91873 4.3442C4.16664 3.28173 6.43915 2.37273 8.01514 2.0835C9.59114 1.78837 9.03039 0.247793 7.10614 0.991521C5.18189 1.73525 0.861184 2.78591 1.60491 5.37126C1.86463 6.28616 4.21386 6.35699 4.21386 6.35699Z" fill="#C60055"/>
</g>
<path opacity="0.2" d="M2.85025 7.78557C1.35099 8.51159 5.96683 17.9203 7.01159 19.8741C8.05635 21.8279 13.2506 20.0807 16.6624 17.7964C20.0741 15.5121 20.8886 9.31434 20.8237 8.56471C20.7588 7.81508 15.045 10.4358 10.258 10.1466C5.47101 9.85738 3.11587 7.66161 2.85025 7.78557Z" fill="#EF7A98"/>
<path opacity="0.3" d="M10.748 33.9872C10.2462 31.8563 9.9393 28.7988 10.748 27.9252C11.5566 27.0516 13.7111 28.4269 15.8655 27.5533C18.02 26.6798 19.047 31.6084 18.9821 32.7949C18.9231 33.9813 14.7204 37.5406 10.748 33.9872Z" fill="#FF8390"/>
<g style="mix-blend-mode:multiply" opacity="0.3">
<path d="M21.4022 5.8259C21.3963 5.84361 21.3904 5.86132 21.3904 5.87312C21.3845 5.88493 21.3786 5.89673 21.3786 5.90854C21.3255 6.07971 21.2487 6.23908 21.1661 6.38665C20.7824 7.04774 20.1331 7.46092 19.4425 7.72064C19.4248 7.72654 19.4071 7.73244 19.3894 7.73835C18.7401 7.98035 18.0554 8.0866 17.5242 8.12792H17.5124C16.9398 8.17514 16.5503 8.15153 16.5503 8.15153L17.7249 4.86378L17.7308 4.85787C17.7308 4.85787 15.9423 4.31483 15.3166 4.42698C15.2753 4.43289 15.234 4.44469 15.2045 4.4565C15.1749 4.4742 15.1513 4.49191 15.1336 4.50962C15.1277 4.51552 15.1277 4.51552 15.1277 4.51552C15.0864 4.56274 15.0274 4.60996 14.9506 4.66899C14.9506 4.66899 14.9447 4.66899 14.9447 4.67489C14.4253 5.03495 13.1858 5.47175 12.6486 4.95232C12.0348 4.35025 10.5886 2.32566 14.0712 2.29614H14.142C14.7204 2.29614 15.3225 2.31385 15.9128 2.36697C16.0308 2.37288 16.1489 2.38468 16.261 2.39649C16.3023 2.40239 16.3496 2.40239 16.3909 2.40829C17.8075 2.55586 19.1592 2.86279 20.1036 3.39993C20.1981 3.97839 20.4224 4.61587 20.4224 4.61587C20.629 4.83426 20.93 4.67489 21.2074 4.42698C21.414 4.82246 21.5025 5.28876 21.4022 5.8259Z" fill="#C60055"/>
</g>
<g style="mix-blend-mode:multiply" opacity="0.3">
<path d="M1.23877 4.68082C1.2978 5.5426 1.94118 5.79641 3.35781 6.26862C4.35535 6.59916 4.2609 6.80575 4.2609 6.80575C4.2609 6.80575 3.33419 5.12351 4.0189 4.09646C4.7036 3.0694 3.39912 2.73886 2.72032 2.88642C1.52209 3.14614 1.23877 4.68082 1.23877 4.68082Z" fill="#C60055"/>
</g>
<path opacity="0.7" d="M6.35645 7.39014C6.35645 7.39014 8.86505 9.22585 9.01852 9.21994C9.01852 9.21994 8.85325 9.93416 8.75881 9.89874C8.66436 9.86333 6.95261 8.6769 6.6988 8.49983C6.44498 8.31685 6.35645 7.39014 6.35645 7.39014Z" fill="#C60055"/>
<path opacity="0.3" d="M5.37061 8.24585C6.80494 8.48786 8.31601 9.77463 8.68787 10.2527C9.05973 10.7308 9.11286 8.8066 9.11286 8.8066L9.14827 8.64723C9.14827 8.64723 9.00071 9.69199 8.7469 9.73331C8.49899 9.77462 6.68689 8.49966 6.68689 8.49966L5.37061 8.24585Z" fill="#C60055"/>
<g style="mix-blend-mode:multiply" opacity="0.2">
<path d="M9.37852 12.0058C9.43754 10.8017 10.9604 10.902 11.2083 11.445C11.4562 11.9881 10.9368 13.1509 10.1695 13.3398C9.39622 13.5287 9.349 12.5961 9.37852 12.0058Z" fill="#C60055"/>
</g>
<g style="mix-blend-mode:multiply" opacity="0.3">
<path d="M9.45532 11.6399C9.63239 13.2218 9.56747 11.6162 10.323 11.2739C11.0785 10.9315 11.2674 11.8878 11.2615 11.935C11.2556 11.9822 11.4917 11.0024 10.4174 11.0614C9.34907 11.1204 9.45532 11.6399 9.45532 11.6399Z" fill="#C60055"/>
</g>
<g style="mix-blend-mode:multiply" opacity="0.2">
<path d="M8.26879 30.8824C8.30421 30.1446 9.23682 30.2095 9.39029 30.5401C9.54375 30.8706 9.22501 31.5848 8.75281 31.697C8.2806 31.8091 8.25108 31.2425 8.26879 30.8824Z" fill="#C60055"/>
</g>
<g style="mix-blend-mode:multiply" opacity="0.3">
<path d="M8.31623 30.6581C8.42248 31.6262 8.38706 30.6463 8.84746 30.4339C9.30787 30.2214 9.42592 30.8116 9.42002 30.8411C9.41411 30.8706 9.56168 30.2686 8.90649 30.304C8.2513 30.3335 8.31623 30.6581 8.31623 30.6581Z" fill="#C60055"/>
</g>
<g style="mix-blend-mode:multiply" opacity="0.2">
<path d="M8.21584 15.7895C8.97727 14.8746 8.02105 11.8111 5.89021 11.9764C3.75937 12.1417 4.81594 15.2169 5.89021 15.9489C6.96449 16.6749 7.80266 16.2853 8.21584 15.7895Z" fill="#C60055"/>
</g>
<g style="mix-blend-mode:multiply" opacity="0.3">
<path d="M4.70967 13.7825C4.81001 14.2901 4.79231 12.5725 5.79575 12.1534C6.79919 11.7343 7.23008 13.0565 7.98562 13.7825C8.74705 14.5026 7.82034 11.6812 5.88429 11.9763C4.21385 12.2242 4.70967 13.7825 4.70967 13.7825Z" fill="#C60055"/>
</g>
<path opacity="0.2" d="M12.0996 9.01928C12.0996 9.01928 17.5182 9.23767 18.1734 9.28489C18.8286 9.33211 19.4188 10.3001 20.2924 9.61544C21.166 8.93074 21.9688 7.53772 21.9452 7.14815C21.9275 6.75858 20.8532 8.42902 18.6987 8.74185C16.5502 9.05469 12.0996 9.01928 12.0996 9.01928Z" fill="#EF7A98"/>
<g style="mix-blend-mode:multiply" opacity="0.7">
<path d="M12.0584 35.6754C8.90644 34.8432 6.61032 32.6887 6.58081 32.2224C6.71657 32.4703 9.4967 34.8078 12.0584 35.6754Z" fill="#C60055"/>
</g>
<g style="mix-blend-mode:multiply" opacity="0.7">
<path d="M19.1769 32.783C19.1769 33.1431 18.2325 36.1888 14.0829 35.994C14.0534 35.994 14.0239 35.9881 13.9944 35.9881C14.1124 35.9822 14.2246 35.9704 14.3367 35.9468C17.1405 35.392 18.2384 33.0486 18.4272 31.6143C18.5335 30.782 18.4745 29.5248 18.4036 28.6099C18.687 31.1421 19.1769 32.5528 19.1769 32.783Z" fill="#C60055"/>
</g>
<path d="M20.3988 2.49688C20.6703 2.41424 20.6231 4.71626 20.6231 4.71626C20.6231 4.71626 20.4224 4.94056 20.1391 4.24405C19.8558 3.54754 20.0269 2.86284 20.0623 2.72118C20.145 2.36702 20.3988 2.49688 20.3988 2.49688Z" fill="#DB6345"/>
<path d="M20.623 4.71615C20.9123 4.63351 21.8449 3.67139 21.8449 3.67139C21.8449 3.67139 21.6324 4.34428 21.3963 4.55678C21.1602 4.76927 20.623 4.71615 20.623 4.71615Z" fill="#FFDBB1"/>
<g style="mix-blend-mode:multiply" opacity="0.3">
<path d="M4.6564 15.7718C4.6564 15.7718 4.41439 9.95769 3.91857 8.89522C3.42275 7.83275 0.536377 6.16821 0.536377 6.16821L4.6564 15.7718Z" fill="#C60055"/>
</g>
<g style="mix-blend-mode:multiply" opacity="0.3">
<path d="M6.58081 32.2222C6.58081 32.2222 8.19222 28.4918 8.47555 27.4529C8.75887 26.4141 7.34225 24.4131 7.34225 24.4131C7.34225 24.4131 7.90299 27.3054 6.58081 32.2222Z" fill="#C60055"/>
</g>
<g style="mix-blend-mode:multiply" opacity="0.3">
<path d="M20.0445 3.03975C19.7022 2.69149 17.2349 2.17797 16.804 2.29011C16.3731 2.40226 17.6245 4.23207 17.713 4.86365C17.8016 5.49523 16.562 8.23994 16.562 8.23994C16.562 8.23994 19.8498 8.1455 20.8532 6.80561C21.8567 5.46572 21.3962 4.55672 21.3962 4.55672C21.3962 4.55672 20.7233 4.79282 20.4046 4.61574C20.08 4.43866 20.0445 3.03975 20.0445 3.03975Z" fill="#C60055"/>
</g>
<g style="mix-blend-mode:multiply" opacity="0.8">
<path d="M19.844 19.7679C19.8617 20.2814 19.8203 20.9956 19.6846 21.7747C19.5488 21.8574 19.3836 21.9046 19.1829 21.9282C18.8228 21.9636 18.5395 22.0522 18.3034 22.1938C18.2444 22.2292 18.3801 21.5741 18.327 21.6154C17.66 22.0876 17.3413 22.8726 16.0368 23.5278C14.9212 24.0886 12.1765 24.2538 10.3644 23.9292C9.18385 23.7167 8.29256 23.6105 8.25714 23.9764C8.1627 24.909 10.3467 26.6562 13.1445 26.8451C15.9423 27.034 18.1794 25.3163 18.1794 25.3163L18.1853 25.3399L18.2089 25.7L18.2148 25.7531C18.2148 25.7531 18.2148 25.759 18.2089 25.759C18.1558 25.9243 17.0933 28.9405 14.0004 28.002C11.2084 27.152 8.50505 25.2042 7.38356 25.0094C7.36585 24.7615 7.34224 24.5077 7.30682 24.2479C6.66934 23.6577 6.15581 23.0261 5.81937 22.424C5.33535 21.5682 5.34126 20.7477 5.50653 20.181C5.35896 19.3488 5.81937 18.8234 5.81937 18.8234C5.74263 18.6169 5.6659 18.4103 5.58916 18.1978L5.18188 17.1176L6.84052 20.2165C6.84052 20.2165 6.811 20.364 6.83461 20.5942C6.88184 21.09 7.18287 21.9518 8.56998 22.4654C8.97136 22.6188 9.46127 22.7369 10.0633 22.8077C13.0678 23.1678 16.6566 22.4122 18.4509 20.972C18.4568 20.972 18.4568 20.9661 18.4628 20.9661C18.8405 20.6651 19.1356 20.3286 19.3304 19.9685C19.4957 19.6616 19.6315 19.3193 19.7377 18.971C20.2867 17.2238 20.1745 15.211 19.6138 15.7659C19.5311 15.8426 19.4367 15.9843 19.3304 16.1968L19.3659 16.0787L19.4131 15.9194L19.4426 15.8249C19.7023 15.0163 20.2808 13.3812 20.3575 13.1806C20.3634 13.1746 20.3634 13.1687 20.3634 13.1628C20.3575 13.1746 21.6443 16.8579 19.844 19.7679Z" fill="#D42F55"/>
</g>
<path opacity="0.2" d="M9.13068 22.3767C8.88277 22.784 13.6285 23.026 16.4912 21.3497C19.354 19.6674 20.1981 17.2946 19.9561 16.3619C19.72 15.4234 18.2384 19.5848 15.7003 20.5528C13.1681 21.5149 9.32546 22.0521 9.13068 22.3767Z" fill="#FF6D42"/>
<path opacity="0.2" d="M10.807 25.2336C9.68549 25.6172 13.0087 26.8332 15.1336 26.3551C17.2585 25.8769 18.4154 25.328 18.8109 23.6399C19.2064 21.9517 17.7839 25.2099 14.7499 25.7235C11.716 26.2311 11.2615 25.0742 10.807 25.2336Z" fill="#FF6D42"/>
<g style="mix-blend-mode:multiply" opacity="0.5">
<path d="M5.81942 18.8176C5.81942 18.8176 7.1298 21.7217 12.2474 20.7241C17.3649 19.7266 19.9739 14.2549 19.9739 14.2549C19.9739 14.2549 19.661 15.6243 19.3305 16.2027C18.9999 16.7812 17.2823 20.1457 12.33 20.9425C7.37771 21.7394 6.61627 20.4762 6.13226 19.945C5.64824 19.4138 5.81942 18.8176 5.81942 18.8176Z" fill="#D42F55"/>
</g>
<g style="mix-blend-mode:multiply" opacity="0.8">
<path d="M5.50646 20.175C5.50646 20.175 5.22904 22.0521 8.91227 22.784C8.91227 22.784 7.02343 23.575 6.30332 23.15C5.595 22.7309 5.50646 20.175 5.50646 20.175Z" fill="#D42F55"/>
</g>
<path d="M13.1385 9.01919C12.4656 8.71226 18.1853 8.41122 19.6668 7.78555C21.1484 7.15987 20.9654 6.13282 21.597 6.18004C22.2285 6.22726 20.8886 8.28727 18.7047 8.74767C16.5207 9.20808 13.1385 9.01919 13.1385 9.01919Z" fill="#FFDEC8"/>
<path d="M8.72918 5.56618C6.9761 5.74916 9.98053 6.87065 12.1527 6.63455C14.3308 6.39845 15.7002 6.38074 16.3317 5.56618C16.9633 4.75162 15.5585 5.08807 13.1384 5.57798C10.7184 6.062 8.72918 5.56618 8.72918 5.56618Z" fill="#FFDEC8"/>
<path d="M4.05434 6.73491C1.99433 6.63457 4.36128 7.89773 4.91612 8.08071C5.47097 8.26369 6.30914 8.48209 6.4508 8.42306C6.59246 8.35813 6.35636 7.3901 6.35636 7.3901L4.05434 6.73491Z" fill="#FFDEC8"/>
<defs>
<linearGradient id="paint0_linear_7775_3486" x1="17.1791" y1="27.9582" x2="19.4394" y2="22.3809" gradientUnits="userSpaceOnUse">
<stop stop-color="#A71100"/>
<stop offset="1" stop-color="#B32203"/>
</linearGradient>
<linearGradient id="paint1_linear_7775_3486" x1="23.8568" y1="27.805" x2="32.3217" y2="32.1866" gradientUnits="userSpaceOnUse">
<stop stop-color="#F4002B"/>
<stop offset="1" stop-color="#FF4234"/>
</linearGradient>
<linearGradient id="paint2_linear_7775_3486" x1="23.6069" y1="27.8459" x2="32.2616" y2="32.3257" gradientUnits="userSpaceOnUse">
<stop stop-color="#F4002B"/>
<stop offset="1" stop-color="#FF4234"/>
</linearGradient>
<linearGradient id="paint3_linear_7775_3486" x1="22.527" y1="28.1213" x2="30.723" y2="32.3637" gradientUnits="userSpaceOnUse">
<stop stop-color="#B6002B"/>
<stop offset="1" stop-color="#CC0034"/>
</linearGradient>
<linearGradient id="paint4_linear_7775_3486" x1="22.014" y1="26.9613" x2="26.2183" y2="26.9613" gradientUnits="userSpaceOnUse">
<stop stop-color="#A71100"/>
<stop offset="1" stop-color="#B32203"/>
</linearGradient>
<linearGradient id="paint5_linear_7775_3486" x1="11.2906" y1="36.0016" x2="11.2906" y2="0.489064" gradientUnits="userSpaceOnUse">
<stop stop-color="#FFA274"/>
<stop offset="1" stop-color="#E47745"/>
</linearGradient>
<linearGradient id="paint6_linear_7775_3486" x1="5.40502" y1="22.6851" x2="19.8473" y2="22.6851" gradientUnits="userSpaceOnUse">
<stop stop-color="#A71100"/>
<stop offset="1" stop-color="#B32203"/>
</linearGradient>
<linearGradient id="paint7_linear_7775_3486" x1="5.47801" y1="18.164" x2="20.8018" y2="18.164" gradientUnits="userSpaceOnUse">
<stop stop-color="#A71100"/>
<stop offset="1" stop-color="#B32203"/>
</linearGradient>
</defs>
</svg>
