<svg width="33" height="36" viewBox="0 0 33 36" fill="none" xmlns="http://www.w3.org/2000/svg">
<path d="M31.5821 32.8143C31.349 33.9874 31.0693 34.7487 30.7508 34.9507C30.7508 34.9507 30.7353 34.9585 30.712 34.9662C30.5178 35.075 30.2148 35.176 29.8108 35.2614C29.7875 35.2692 29.772 35.2692 29.7487 35.277C27.9696 35.6499 24.4194 35.8052 20.6982 35.7742C20.6205 35.7819 20.5428 35.7819 20.4651 35.7742C16.7595 35.7353 12.914 35.5023 10.4901 35.0983C10.4824 35.0983 10.4824 35.0983 10.4824 35.0983C9.27047 34.8885 8.42368 34.6399 8.12071 34.3525C8.05079 34.2826 7.98087 34.1738 7.91872 34.0262C6.38829 30.6235 5.67358 7.1777 7.12632 5.82596C8.4703 4.5752 13.8851 4.01586 19.3154 3.94594H19.7426C25.5147 3.9071 31.1859 4.41206 31.8695 5.24331C33.0193 6.61836 32.9416 26.1721 31.5821 32.8143Z" fill="#FF7E83"/>
<path d="M29.7565 33.467C29.5545 34.2672 29.3215 34.7877 29.0729 34.9508C28.8631 35.0829 28.498 35.1916 28.0163 35.2848C26.4937 35.5956 23.7513 35.751 20.7138 35.7743C20.6361 35.782 20.5584 35.782 20.4807 35.7743C15.4078 35.8054 9.59682 35.4558 7.3206 34.7644C7.30506 34.7566 7.30506 34.7566 7.30506 34.7566C6.89332 34.6323 6.59811 34.4924 6.44274 34.3448C5.2619 33.1951 4.4928 20.2292 4.67148 12.1575V12.1498C4.74917 8.76262 4.99 6.23781 5.44058 5.82607C6.91663 4.44324 13.3646 3.90721 19.3154 3.94605H19.7427C24.8933 4.0082 29.5623 4.49763 30.1838 5.24342C31.3646 6.66508 31.2481 27.5783 29.7565 33.467Z" fill="#C72C5B"/>
<path d="M7.6936 4.86271C7.6936 4.86271 19.1368 2.76517 30.1839 5.23561H31.8697C31.8697 5.23561 30.9841 4.18684 25.142 3.76733C21.5296 3.51096 14.934 3.34782 7.6936 4.86271Z" fill="#FFEDE2"/>
<path d="M30.751 34.9508C30.751 34.9508 30.7355 34.9586 30.7122 34.9663C30.6189 35.013 30.347 35.1217 29.811 35.2616C29.7877 35.2693 29.7722 35.2693 29.7489 35.2771C28.3505 35.6189 25.2508 36.1006 19.0281 35.984C9.81446 35.8209 7.45278 34.8265 7.30518 34.7644C7.30518 34.7566 7.30518 34.7566 7.30518 34.7566C7.30518 34.7566 8.54039 34.9197 10.4903 35.0906C10.4903 35.0906 10.4903 35.0906 10.4981 35.0906C13.2249 35.3392 17.3656 35.6189 21.5296 35.5568C21.8637 35.549 22.1899 35.5412 22.5085 35.5335C24.1476 35.4946 25.4839 35.4402 26.5715 35.3781H26.5948C27.123 35.3392 27.5969 35.3082 28.0087 35.2771C30.0363 35.1139 30.751 34.9508 30.751 34.9508Z" fill="#C92F6A"/>
<path opacity="0.3" d="M6.80791 6.59506C5.09104 7.56614 6.28741 22.6063 9.39488 27.3374C12.5023 32.0763 27.7833 21.9537 29.7177 17.3158C31.6521 12.6702 28.9641 6.62613 26.4471 5.24331C23.9223 3.85272 8.67239 5.53852 6.80791 6.59506Z" fill="#F9B5CA"/>
<path opacity="0.3" d="M15.5787 35.3781C11.2127 34.1195 27.9076 24.7971 29.3525 24.2456C30.7975 23.694 30.1372 33.4903 29.0884 34.7566C28.0396 36.0229 15.5787 35.3781 15.5787 35.3781Z" fill="white"/>
<path opacity="0.8" d="M30.984 5.24341C30.5567 5.24341 31.2403 12.7169 30.984 21.5343C30.7276 30.3517 30.3159 32.1152 30.7509 32.4493C31.186 32.7833 32.7941 23.6551 32.6698 16.8032C32.5455 9.95122 32.0949 5.66292 31.8774 5.53085C31.6521 5.40655 30.984 5.24341 30.984 5.24341Z" fill="#E39AA9"/>
<path opacity="0.8" d="M31.5821 32.8144C31.3491 33.9874 31.0694 34.7488 30.7509 34.9507C30.7509 34.9507 30.7354 34.9585 30.7121 34.9663C30.5178 35.075 30.2149 35.176 29.8109 35.2615C29.7876 35.2693 29.772 35.2693 29.7487 35.277C28.3504 35.6188 25.2507 36.1005 19.028 35.984C9.81434 35.8208 7.45267 34.8264 7.30506 34.7643C7.30506 34.7565 7.30506 34.7565 7.30506 34.7565C6.89332 34.6322 6.59811 34.4924 6.44274 34.3448C5.2619 33.195 4.4928 20.2291 4.67148 12.1575C4.77248 15.6689 5.23083 29.8156 6.33398 32.5968C6.55927 33.1717 7.12638 33.6378 7.92655 34.0185C9.64343 34.8264 12.4635 35.2226 15.5088 35.3547C16.9071 35.4091 18.3521 35.4169 19.766 35.378C23.5649 35.2693 27.3405 34.2516 29.5701 33.5291C29.6322 33.5058 29.6944 33.4902 29.7565 33.4669C30.8441 33.1096 31.52 32.8377 31.5821 32.8144Z" fill="#F29AA9"/>
<path d="M22.5238 4.39663C20.0689 4.56755 22.081 7.46526 24.1785 8.55287C26.276 9.64825 28.1638 5.87268 28.4746 5.24342C28.7853 4.61416 24.0076 4.28787 22.5238 4.39663Z" fill="white"/>
<path d="M29.5699 32.8143C29.3368 33.9874 29.0572 34.7487 28.7386 34.9507C28.7386 34.9507 28.7231 34.9585 28.6998 34.9662C28.5056 35.075 28.2026 35.176 27.7986 35.2614C27.7753 35.2692 27.7598 35.2692 27.7365 35.277C25.9575 35.6499 22.4072 35.8052 18.686 35.7742C18.6083 35.7819 18.5306 35.7819 18.4529 35.7742C14.7473 35.7353 10.9018 35.5023 8.47796 35.0983C8.47019 35.0983 8.47019 35.0983 8.47019 35.0983C7.25828 34.8885 6.41149 34.6399 6.10852 34.3525C6.0386 34.2826 5.96868 34.1738 5.90653 34.0262C4.36833 30.6235 3.65362 7.1777 5.10636 5.82596C6.45034 4.5752 11.8651 4.01586 17.2954 3.94594H17.7227C23.4948 3.9071 29.1659 4.41206 29.8496 5.24331C30.9993 6.61836 30.9216 26.1721 29.5699 32.8143Z" fill="#FF7E83"/>
<path d="M27.7365 33.467C27.5345 34.2672 27.3015 34.7877 27.0529 34.9508C26.8431 35.0829 26.478 35.1916 25.9963 35.2848C24.4737 35.5956 21.7314 35.751 18.6938 35.7743C18.6161 35.782 18.5384 35.782 18.4607 35.7743C13.3878 35.8054 7.57684 35.4558 5.30062 34.7644C5.29285 34.7566 5.29285 34.7566 5.29285 34.7566C4.88112 34.6323 4.58591 34.4924 4.43053 34.3448C3.2497 33.1951 2.4806 20.2292 2.65928 12.1575V12.1498C2.73696 8.76262 2.97779 6.23781 3.42837 5.82607C4.91219 4.44324 11.3602 3.90721 17.3032 3.94605H17.7305C22.8811 4.0082 27.5501 4.49763 28.1716 5.24342C29.3524 6.66508 29.2359 27.5783 27.7365 33.467Z" fill="#FFA497"/>
<path d="M5.68115 4.86271C5.68115 4.86271 17.1244 2.76517 28.1714 5.23561H29.8572C29.8572 5.23561 28.9716 4.18684 23.1296 3.76733C19.5171 3.51096 12.9215 3.34782 5.68115 4.86271Z" fill="#FFEDE2"/>
<path d="M28.7388 34.9508C28.7388 34.9508 28.7232 34.9586 28.6999 34.9663C28.6067 35.013 28.3348 35.1217 27.7987 35.2616C27.7754 35.2693 27.7599 35.2693 27.7366 35.2771C26.3382 35.6189 23.2385 36.1006 17.0158 35.984C7.8022 35.8131 5.44053 34.8265 5.29292 34.7644C5.28516 34.7566 5.28516 34.7566 5.28516 34.7566C5.28516 34.7566 6.52037 34.9197 8.47031 35.0906C8.47031 35.0906 8.47031 35.0906 8.47808 35.0906C11.2049 35.3392 15.3456 35.6189 19.5096 35.5568C19.8436 35.549 20.1699 35.5412 20.4884 35.5335C22.1276 35.4946 23.4638 35.4402 24.5514 35.3781H24.5748C25.103 35.3392 25.5769 35.3082 25.9887 35.2771C28.024 35.1139 28.7388 34.9508 28.7388 34.9508Z" fill="#C92F6A"/>
<path opacity="0.3" d="M4.79571 6.59506C3.07883 7.56614 4.27521 22.6063 7.38267 27.3374C10.4901 32.0763 25.7711 21.9537 27.7055 17.3158C29.6399 12.6702 26.9519 6.62613 24.4349 5.24331C21.9101 3.85272 6.66019 5.53852 4.79571 6.59506Z" fill="#F9B5CA"/>
<path opacity="0.3" d="M13.5665 35.3781C9.20049 34.1195 25.8954 24.7971 27.3403 24.2456C28.7853 23.694 28.125 33.4903 27.0762 34.7566C26.0196 36.0229 13.5665 35.3781 13.5665 35.3781Z" fill="white"/>
<path opacity="0.8" d="M28.964 5.24341C28.5367 5.24341 29.2203 12.7169 28.964 21.5343C28.7076 30.3517 28.2959 32.1152 28.7309 32.4493C29.1659 32.7833 30.7741 23.6551 30.6498 16.8032C30.5255 9.95122 30.0749 5.66292 29.8574 5.53085C29.6321 5.40655 28.964 5.24341 28.964 5.24341Z" fill="#E39AA9"/>
<path opacity="0.8" d="M29.5699 32.8144C29.3368 33.9874 29.0572 34.7488 28.7386 34.9507C28.7386 34.9507 28.7231 34.9585 28.6998 34.9663C28.5056 35.075 28.2026 35.176 27.7986 35.2615C27.7753 35.2693 27.7598 35.2693 27.7365 35.277C26.3381 35.6188 23.2384 36.1005 17.0157 35.984C7.80209 35.8131 5.44042 34.8264 5.29281 34.7643C5.28504 34.7565 5.28504 34.7565 5.28504 34.7565C4.8733 34.6322 4.57809 34.4924 4.42272 34.3448C3.24188 33.195 2.47279 20.2291 2.65146 12.1575C2.75246 15.6689 3.21081 29.8156 4.31396 32.5968C4.53925 33.1717 5.10636 33.6378 5.90654 34.0185C7.62341 34.8264 10.4434 35.2226 13.4888 35.3547C14.8871 35.4091 16.3321 35.4169 17.746 35.378C21.5449 35.2693 25.3204 34.2516 27.55 33.5291C27.6122 33.5058 27.6743 33.4902 27.7365 33.4669C28.8319 33.1096 29.5077 32.8377 29.5699 32.8144Z" fill="#F29AA9"/>
<path d="M20.5038 4.39663C18.0489 4.56755 20.0609 7.46526 22.1585 8.55287C24.256 9.64825 26.1438 5.87268 26.4546 5.24342C26.7653 4.61416 21.9953 4.28787 20.5038 4.39663Z" fill="white"/>
<path opacity="0.78" d="M3.64585 31.6569C3.64585 31.6569 12.4711 33.8244 19.7814 33.6535C27.7365 33.467 27.8763 31.7268 28.358 28.0212C28.6765 25.574 28.8552 9.8658 28.661 7.55851C28.4667 5.24345 27.6588 5.03369 27.6588 5.03369L3.49048 30.748L3.64585 31.6569Z" fill="#CD2F55"/>
<path d="M26.9442 29.2098C26.7111 30.3829 26.4314 31.1442 26.1129 31.3462C26.1129 31.3462 26.0974 31.354 26.0741 31.3617C25.8798 31.4705 25.5769 31.5715 25.1729 31.6569C25.1496 31.6647 25.1341 31.6647 25.1108 31.6725C23.3317 32.0454 19.7814 32.2007 16.0603 32.1697C15.9826 32.1774 15.9049 32.1774 15.8272 32.1697C12.1215 32.1308 8.27605 31.8978 5.85223 31.4938C5.84446 31.4938 5.84446 31.4938 5.84446 31.4938C4.63255 31.284 3.78576 31.0354 3.48278 30.748C3.41287 30.6781 3.34295 30.5693 3.2808 30.4217C1.7426 27.0268 1.02789 3.58098 2.48063 2.22146C3.8246 0.970708 9.23936 0.411364 14.6697 0.341446H15.0969C20.8691 0.302603 26.5402 0.807566 27.2238 1.63881C28.3736 3.02164 28.2959 22.5676 26.9442 29.2098Z" fill="#FF7E83"/>
<path d="M25.1107 29.8701C24.9088 30.6702 24.6757 31.1907 24.4271 31.3539C24.2174 31.4859 23.8522 31.5947 23.3706 31.6879C21.8479 31.9987 19.1056 32.154 16.068 32.1774C15.9903 32.1851 15.9126 32.1851 15.835 32.1774C10.762 32.2084 4.95106 31.8588 2.67484 31.1674C2.66707 31.1597 2.66707 31.1597 2.66707 31.1597C2.25533 31.0354 1.96012 30.8955 1.80475 30.7479C0.616144 29.5904 -0.152954 16.6245 0.025725 8.56061V8.55284C0.103412 5.1657 0.34424 2.64088 0.794823 2.22914C2.27864 0.846321 8.72663 0.310283 14.6697 0.349126H15.0969C20.2476 0.411275 24.9165 0.900701 25.538 1.64649C26.7266 3.06816 26.6101 23.9814 25.1107 29.8701Z" fill="url(#paint0_linear_7775_3540)"/>
<path d="M3.05542 1.26582C3.05542 1.26582 14.4987 -0.831724 25.5457 1.63871H27.2315C27.2315 1.63871 26.3459 0.589943 20.5038 0.170435C16.8914 -0.0937001 10.2958 -0.249073 3.05542 1.26582Z" fill="#FFEDE2"/>
<path d="M26.113 31.3461C26.113 31.3461 26.0975 31.3538 26.0742 31.3616C25.981 31.4082 25.7091 31.517 25.173 31.6568C25.1497 31.6646 25.1342 31.6646 25.1109 31.6724C23.7125 32.0142 20.6128 32.4958 14.3901 32.3793C5.17647 32.2162 2.8148 31.2218 2.66719 31.1596C2.65942 31.1519 2.65942 31.1519 2.65942 31.1519C2.65942 31.1519 3.89464 31.315 5.84458 31.4859C5.84458 31.4859 5.84458 31.4859 5.85235 31.4859C8.57915 31.7345 12.7198 32.0142 16.8839 31.952C17.2179 31.9443 17.5442 31.9365 17.8627 31.9287C19.5019 31.8899 20.8381 31.8355 21.9257 31.7734H21.949C22.4773 31.7345 22.9512 31.7034 23.3629 31.6724C25.3983 31.517 26.113 31.3461 26.113 31.3461Z" fill="#C92F6A"/>
<path opacity="0.3" d="M2.16984 2.99052C0.445194 3.9616 1.64157 19.0017 4.74904 23.7406C7.8565 28.4795 23.1375 18.3569 25.0719 13.719C27.0063 9.07338 24.3183 3.02936 21.8013 1.64654C19.2842 0.255945 4.03432 1.94175 2.16984 2.99052Z" fill="#F9B5CA"/>
<path opacity="0.3" d="M10.9407 31.7733C6.57475 30.5148 23.2696 21.1924 24.7146 20.6408C26.1596 20.0893 25.4992 29.8855 24.4505 31.1518C23.3939 32.4181 10.9407 31.7733 10.9407 31.7733Z" fill="white"/>
<path opacity="0.5" d="M26.346 1.63867C25.9188 1.63867 26.6024 9.11213 26.346 17.9296C26.0897 26.747 25.6779 28.5105 26.113 28.8445C26.548 29.1786 28.1561 20.0504 28.0318 13.1984C27.9075 6.34648 27.457 2.05818 27.2394 1.92611C27.0064 1.80958 26.346 1.63867 26.346 1.63867Z" fill="#E39AA9"/>
<path opacity="0.8" d="M26.9442 29.2097C26.7111 30.3827 26.4314 31.1441 26.1129 31.346C26.1129 31.346 26.0974 31.3538 26.0741 31.3616C25.8799 31.4703 25.5769 31.5713 25.1729 31.6568C25.1496 31.6646 25.1341 31.6646 25.1108 31.6723C23.7124 32.0142 20.6127 32.4958 14.39 32.3793C5.17636 32.2161 2.81468 31.2217 2.66708 31.1596C2.65931 31.1518 2.65931 31.1518 2.65931 31.1518C2.24757 31.0275 1.95236 30.8877 1.79699 30.7401C0.616151 29.5903 -0.152947 16.6244 0.025732 8.56055C0.126725 12.072 0.585076 26.2187 1.68823 28.9999C1.91352 29.5748 2.48063 30.0409 3.2808 30.4216C4.99768 31.2295 7.8177 31.6257 10.863 31.7578C12.2614 31.8122 13.7064 31.8199 15.1202 31.7811C18.9191 31.6723 22.6947 30.6546 24.9243 29.9321C24.9865 29.9088 25.0486 29.8933 25.1108 29.87C26.2061 29.5049 26.882 29.2407 26.9442 29.2097Z" fill="#F29AA9"/>
<path d="M17.878 0.791867C15.4231 0.970546 17.4352 3.86049 19.5327 4.9481C21.6303 6.04348 23.5181 2.26791 23.8288 1.63865C24.1396 1.00939 19.3696 0.690874 17.878 0.791867Z" fill="white"/>
<path d="M12.0361 6.19116C12.0361 6.19116 9.67447 14.5347 6.32617 15.9175C6.32617 15.9175 9.87645 18.4268 12.0361 24.2222C12.0361 24.2222 14.6076 18.5356 18.1112 15.6767C18.1112 15.6845 12.8363 14.4182 12.0361 6.19116Z" fill="#ED0049"/>
<path opacity="0.3" d="M9.04518 13.6958C8.59459 14.9621 11.0029 17.3704 12.2226 18.2715C13.4422 19.1727 16.2933 16.1041 16.7517 15.7156C17.2023 15.3272 14.3745 14.0609 13.3257 11.5594C12.2769 9.05788 12.4479 8.29655 11.9973 8.00911C11.5545 7.7139 9.04518 13.6958 9.04518 13.6958Z" fill="white"/>
<path d="M13.3103 11.8779C12.2227 11.202 13.3802 14.4571 14.0328 14.8688C14.6853 15.2806 14.8873 14.1075 14.6931 13.4938C14.5066 12.8801 13.3103 11.8779 13.3103 11.8779Z" fill="white"/>
<defs>
<linearGradient id="paint0_linear_7775_3540" x1="13.1727" y1="32.1747" x2="13.1727" y2="0.343066" gradientUnits="userSpaceOnUse">
<stop stop-color="#FFBDCA"/>
<stop offset="1" stop-color="#FFE8D3"/>
</linearGradient>
</defs>
</svg>
