<svg width="36" height="33" viewBox="0 0 36 33" fill="none" xmlns="http://www.w3.org/2000/svg">
<path d="M34.5209 8.39551H1.47705V32.3998H34.5209V8.39551Z" fill="#E6A347"/>
<path d="M27.6736 30.1363L27.6736 16.9202H19.1891V30.1363H27.6736Z" fill="#71C1DC"/>
<mask id="mask0_9066_3888" style="mask-type:luminance" maskUnits="userSpaceOnUse" x="19" y="16" width="9" height="15">
<path d="M27.6736 30.1363L27.6736 16.9202H19.1891V30.1363H27.6736Z" fill="white"/>
</mask>
<g mask="url(#mask0_9066_3888)">
<path opacity="0.8" d="M22.2233 30.1356H25.9125L19.0277 16.9194H15.3367L22.2233 30.1356Z" fill="#D6F0EF"/>
</g>
<mask id="mask1_9066_3888" style="mask-type:luminance" maskUnits="userSpaceOnUse" x="19" y="16" width="9" height="15">
<path d="M27.6736 30.1363L27.6736 16.9202H19.1891V30.1363H27.6736Z" fill="white"/>
</mask>
<g mask="url(#mask1_9066_3888)">
<path opacity="0.8" d="M27.3915 30.1356H28.7864L21.8998 16.9194H20.5049L27.3915 30.1356Z" fill="#D6F0EF"/>
</g>
<mask id="mask2_9066_3888" style="mask-type:luminance" maskUnits="userSpaceOnUse" x="19" y="16" width="9" height="15">
<path d="M27.6736 30.1363L27.6736 16.9202H19.1891V30.1363H27.6736Z" fill="white"/>
</mask>
<g mask="url(#mask2_9066_3888)">
<path opacity="0.6" d="M23.7607 18.9695H19.1885V30.1356H23.7607V18.9695Z" fill="#71C1DC"/>
</g>
<mask id="mask3_9066_3888" style="mask-type:luminance" maskUnits="userSpaceOnUse" x="19" y="16" width="9" height="15">
<path d="M27.6736 30.1363L27.6736 16.9202H19.1891V30.1363H27.6736Z" fill="white"/>
</mask>
<g mask="url(#mask3_9066_3888)">
<path opacity="0.6" d="M27.6731 25.3298H26.0332V30.1357H27.6731V25.3298Z" fill="#71C1DC"/>
</g>
<path d="M18.2708 15.9514V31.1038H28.5925V15.9514H18.2708ZM19.1885 30.1357V23.5286H27.6729V22.8902H19.1885V16.9195H27.6729V30.1357H19.1885Z" fill="#80412F"/>
<path d="M17.9992 31.1213H18.2698V15.9516H17.9992V31.1213Z" fill="#A46D47"/>
<path d="M17.082 30.1373L17.082 16.9211H8.59757L8.59757 30.1373H17.082Z" fill="#71C1DC"/>
<mask id="mask4_9066_3888" style="mask-type:luminance" maskUnits="userSpaceOnUse" x="8" y="16" width="10" height="15">
<path d="M17.082 30.1373L17.082 16.9211H8.59757L8.59757 30.1373H17.082Z" fill="white"/>
</mask>
<g mask="url(#mask4_9066_3888)">
<path opacity="0.6" d="M17.0804 26.2402H8.59595V30.1378H17.0804V26.2402Z" fill="#71C1DC"/>
</g>
<mask id="mask5_9066_3888" style="mask-type:luminance" maskUnits="userSpaceOnUse" x="8" y="16" width="10" height="15">
<path d="M17.082 30.1373L17.082 16.9211H8.59757L8.59757 30.1373H17.082Z" fill="white"/>
</mask>
<g mask="url(#mask5_9066_3888)">
<path opacity="0.6" d="M13.1682 23.0195H8.59595V26.0203H13.1682V23.0195Z" fill="#71C1DC"/>
</g>
<mask id="mask6_9066_3888" style="mask-type:luminance" maskUnits="userSpaceOnUse" x="8" y="16" width="10" height="15">
<path d="M17.082 30.1373L17.082 16.9211H8.59757L8.59757 30.1373H17.082Z" fill="white"/>
</mask>
<g mask="url(#mask6_9066_3888)">
<path opacity="0.6" d="M13.1682 19.7949H8.59595V22.7957H13.1682V19.7949Z" fill="#71C1DC"/>
</g>
<mask id="mask7_9066_3888" style="mask-type:luminance" maskUnits="userSpaceOnUse" x="8" y="16" width="10" height="15">
<path d="M17.082 30.1373L17.082 16.9211H8.59757L8.59757 30.1373H17.082Z" fill="white"/>
</mask>
<g mask="url(#mask7_9066_3888)">
<path opacity="0.6" d="M17.0696 23.8005H15.1519V26.0203H17.0696V23.8005Z" fill="#71C1DC"/>
</g>
<mask id="mask8_9066_3888" style="mask-type:luminance" maskUnits="userSpaceOnUse" x="8" y="16" width="10" height="15">
<path d="M17.082 30.1373L17.082 16.9211H8.59757L8.59757 30.1373H17.082Z" fill="white"/>
</mask>
<g mask="url(#mask8_9066_3888)">
<path opacity="0.6" d="M17.0696 21.3726H15.1519V23.5923H17.0696V21.3726Z" fill="#71C1DC"/>
</g>
<mask id="mask9_9066_3888" style="mask-type:luminance" maskUnits="userSpaceOnUse" x="8" y="16" width="10" height="15">
<path d="M17.082 30.1373L17.082 16.9211H8.59757L8.59757 30.1373H17.082Z" fill="white"/>
</mask>
<g mask="url(#mask9_9066_3888)">
<path opacity="0.8" d="M11.6307 30.1359H15.3217L8.43506 16.9197H4.74585L11.6307 30.1359Z" fill="#D6F0EF"/>
</g>
<mask id="mask10_9066_3888" style="mask-type:luminance" maskUnits="userSpaceOnUse" x="8" y="16" width="10" height="15">
<path d="M17.082 30.1373L17.082 16.9211H8.59757L8.59757 30.1373H17.082Z" fill="white"/>
</mask>
<g mask="url(#mask10_9066_3888)">
<path opacity="0.8" d="M16.799 30.1359H18.1939L11.3072 16.9197H9.91235L16.799 30.1359Z" fill="#D6F0EF"/>
</g>
<path d="M7.67822 15.9514V31.1038H18V15.9514H7.67822ZM8.59596 30.1357V23.5286H17.0804V22.8902H8.59596V16.9195H17.0804V30.1357H8.59596Z" fill="#80412F"/>
<path d="M7.40863 31.1213H7.6792L7.6792 15.9516H7.40863L7.40863 31.1213Z" fill="#A46D47"/>
<path d="M34.5228 6.79297H1.47705V13.8089C1.82257 14.2081 2.31983 14.4589 2.87193 14.4589C3.91581 14.4589 4.76407 13.5659 4.76407 12.4628C4.76407 13.564 5.61051 14.4589 6.65621 14.4589C7.70009 14.4589 8.54835 13.5659 8.54835 12.4628C8.54835 13.564 9.39478 14.4589 10.4405 14.4589C11.4844 14.4589 12.3326 13.5659 12.3326 12.4628C12.3326 13.564 13.1791 14.4589 14.2248 14.4589C15.2686 14.4589 16.1169 13.5659 16.1169 12.4628C16.1169 13.564 16.9633 14.4589 18.009 14.4589C19.0529 14.4589 19.9012 13.5659 19.9012 12.4628C19.9012 13.564 20.7476 14.4589 21.7933 14.4589C22.8372 14.4589 23.6855 13.5659 23.6855 12.4628C23.6855 13.564 24.5319 14.4589 25.5776 14.4589C26.6215 14.4589 27.4697 13.5659 27.4697 12.4628C27.4697 13.564 28.3162 14.4589 29.3619 14.4589C30.4076 14.4589 31.254 13.5659 31.254 12.4628C31.254 13.564 32.1004 14.4589 33.1462 14.4589C33.6928 14.4589 34.1845 14.212 34.5282 13.8224V6.79297H34.5228Z" fill="#C98439"/>
<path d="M2.8665 12.2294C1.82263 12.2294 0.974365 11.3365 0.974365 10.2333V4.56348H4.75864V10.2353C4.75864 11.3365 3.91038 12.2294 2.8665 12.2294Z" fill="#C9284E"/>
<path d="M6.64898 12.2294C5.6051 12.2294 4.75684 11.3365 4.75684 10.2333V4.56348H8.54111V10.2353C8.54111 11.3365 7.69468 12.2294 6.64898 12.2294Z" fill="#E2E0E3"/>
<path d="M33.1334 12.2294C32.0895 12.2294 31.2412 11.3365 31.2412 10.2333V4.56348H35.0255V10.2353C35.0255 11.3365 34.1791 12.2294 33.1334 12.2294Z" fill="#C9284E"/>
<path d="M10.4332 12.2294C9.38928 12.2294 8.54102 11.3365 8.54102 10.2333V4.56348H12.3253V10.2353C12.3253 11.3365 11.477 12.2294 10.4332 12.2294Z" fill="#C9284E"/>
<path d="M14.2156 12.2294C13.1717 12.2294 12.3235 11.3365 12.3235 10.2333V4.56348H16.1078V10.2353C16.1078 11.3365 15.2613 12.2294 14.2156 12.2294Z" fill="#E2E0E3"/>
<path d="M18 12.2294C16.9562 12.2294 16.1079 11.3365 16.1079 10.2333V4.56348H19.8922V10.2353C19.8922 11.3365 19.0439 12.2294 18 12.2294Z" fill="#C9284E"/>
<path d="M21.7825 12.2294C20.7386 12.2294 19.8904 11.3365 19.8904 10.2333V4.56348H23.6747V10.2353C23.6747 11.3365 22.8282 12.2294 21.7825 12.2294Z" fill="#E2E0E3"/>
<path d="M25.5667 12.2294C24.5228 12.2294 23.6746 11.3365 23.6746 10.2333V4.56348H27.4588V10.2353C27.4588 11.3365 26.6124 12.2294 25.5667 12.2294Z" fill="#C9284E"/>
<path d="M29.3509 12.2294C28.307 12.2294 27.4587 11.3365 27.4587 10.2333V4.56348H31.243V10.2353C31.2412 11.3365 30.3948 12.2294 29.3509 12.2294Z" fill="#E2E0E3"/>
<path d="M36 31.2292H0V32.3999H36V31.2292Z" fill="#CB1E48"/>
<path d="M36 31.1213H0V31.4222H36V31.1213Z" fill="#DF3D55"/>
<path d="M30.3765 0.399902H5.62329V1.68044H30.3765V0.399902Z" fill="#CB1E48"/>
<path d="M8.3729 1.68042H5.62336L0.974365 4.56356H4.75864L8.3729 1.68042Z" fill="#DF3D55"/>
<path d="M11.1242 1.68042H8.3728L4.75854 4.56356H8.54099L11.1242 1.68042Z" fill="#F3EFF1"/>
<path d="M13.8737 1.68042H11.1242L8.54102 4.56356H12.3253L13.8737 1.68042Z" fill="#DF3D55"/>
<path d="M30.3766 1.68042H27.6252L31.2413 4.56356H35.0256L30.3766 1.68042Z" fill="#DF3D55"/>
<path d="M16.6253 1.68042H13.8739L12.3254 4.56356H16.1079L16.6253 1.68042Z" fill="#F3EFF1"/>
<path d="M19.3748 1.68042H16.6253L16.1079 4.56356H19.8922L19.3748 1.68042Z" fill="#DF3D55"/>
<path d="M22.1261 1.68042H19.3748L19.8921 4.56356H23.6746L22.1261 1.68042Z" fill="#F3EFF1"/>
<path d="M24.8758 1.68042H22.1262L23.6747 4.56356H27.4589L24.8758 1.68042Z" fill="#DF3D55"/>
<path d="M27.6253 1.68042H24.8757L27.4589 4.56356H31.2414L27.6253 1.68042Z" fill="#F3EFF1"/>
</svg>
