<svg width="38" height="37" viewBox="0 0 38 37" fill="none" xmlns="http://www.w3.org/2000/svg">
<path d="M24.3778 1.44458L27.7722 6.12791L27.6444 11.2557L24.25 6.57791L24.3778 1.44458Z" fill="#FFFB21"/>
<path d="M21.4278 13.3722L24.8222 18.05C24.1778 17.1611 23.1722 16.5389 21.9167 16.3667C19.2333 15.9944 16.45 17.8389 15.6945 20.4833C15.2945 21.8889 15.55 23.2389 16.2833 24.25L12.8889 19.5722C12.1556 18.5611 11.9 17.2111 12.3 15.8056C13.0556 13.1611 15.8389 11.3222 18.5222 11.6889C19.7722 11.8611 20.7833 12.4889 21.4278 13.3722Z" fill="#FFAA00"/>
<path d="M24.5056 17.6779L23.1389 15.7946C22.4945 14.9112 21.4889 14.2835 20.2334 14.1112C17.5501 13.739 14.7667 15.5835 14.0112 18.2279C13.6612 19.4446 13.8112 20.6223 14.3334 21.5723L16.2834 24.2557C15.5501 23.2446 15.2945 21.8946 15.6945 20.489C16.4501 17.8446 19.2334 16.0057 21.9167 16.3723C22.9778 16.5168 23.8667 16.989 24.5056 17.6779Z" fill="#FF7B00"/>
<path d="M7.50559 24.2224L10.9 28.9057L5.51114 29.5946L2.1167 24.9169L7.50559 24.2224Z" fill="#FF7B00"/>
<path d="M10.0612 26.3722L13.4556 31.05C12.4667 30.4722 11.6056 29.7556 10.9001 28.9056L7.50562 24.2278C8.21117 25.0722 9.07228 25.7944 10.0612 26.3722Z" fill="#FF7B00"/>
<path d="M32.189 8.03345L35.5834 12.7112L37.039 17.9168L33.6445 13.239L32.189 8.03345Z" fill="#FFFB21"/>
<path d="M33.6446 13.239L37.039 17.9168L32.2946 20.9835L28.9001 16.3001L33.6446 13.239Z" fill="#FFAA00"/>
<path d="M28.9001 16.3C28.8279 16.8778 28.7223 17.4556 28.5556 18.0445C28.389 18.6278 28.1667 19.1945 27.9167 19.7445L31.3112 24.4223C31.5612 23.8723 31.7834 23.3056 31.9501 22.7223C32.1167 22.1334 32.2279 21.55 32.2945 20.9778L28.9001 16.3Z" fill="#FF9900"/>
<path d="M21.8168 26.1946L25.2112 30.8724C24.1001 31.4724 22.9001 31.9112 21.6779 32.1835L18.2834 27.5057C19.5057 27.2335 20.7001 26.7946 21.8168 26.1946Z" fill="#FF9900"/>
<path d="M18.2834 27.5056L21.6723 32.1834L18.9723 36.9556L15.5779 32.2778L18.2834 27.5056Z" fill="#FFAA00"/>
<path d="M15.5778 32.2778L18.9722 36.9556L13.3278 36.1834L9.93335 31.5056L15.5778 32.2778Z" fill="#FF7B00"/>
<path d="M27.9167 19.75L31.3112 24.4278L34.0112 28.5222L30.6167 23.8389L27.9167 19.75Z" fill="#FFD321"/>
<path d="M30.6167 23.8389L34.0112 28.5222L29.8112 32.9444L26.4167 28.2666L30.6167 23.8389Z" fill="#FFAA00"/>
<path d="M28.5556 18.0501C28.389 18.6334 28.1667 19.2001 27.9167 19.7501L30.6167 23.8445L26.4223 28.2668L21.8223 26.1945C20.7056 26.7945 19.5112 27.2334 18.289 27.5056L15.589 32.2779L9.93897 31.5056L10.0667 26.3723C9.07786 25.7945 8.21675 25.0779 7.51119 24.2279L2.11675 24.9223L0.666748 19.7112L5.41119 16.6445C5.48341 16.0667 5.58341 15.489 5.75008 14.9001C5.91675 14.3112 6.14453 13.7445 6.39453 13.1945L3.69453 9.11119L7.88897 4.68341L12.4945 6.75008C13.6056 6.15008 14.8056 5.71119 16.0279 5.44453L18.7334 0.666748L24.3779 1.44453L24.2501 6.57786C25.239 7.15008 26.1001 7.8723 26.8056 8.7223L32.189 8.03342L33.6445 13.239L28.9056 16.3056C28.8334 16.8779 28.7223 17.4612 28.5556 18.0501ZM15.789 21.2556C18.4723 21.6279 21.2612 19.7834 22.0112 17.1445C22.7667 14.5001 21.2056 12.0612 18.5167 11.689C15.8334 11.3167 13.0501 13.1612 12.2945 15.8056C11.5445 18.4445 13.1056 20.8834 15.789 21.2556Z" fill="#FFD321"/>
<path d="M21.25 13.15C20.6056 12.2667 19.6 11.6389 18.3444 11.4667C15.6611 11.0945 12.8778 12.9389 12.1222 15.5834C11.7667 16.8223 11.9611 17.9889 12.5111 18.9389C12.0778 18.0278 11.9722 16.9389 12.2944 15.8056C13.05 13.1611 15.8333 11.3223 18.5167 11.6889C19.6778 11.85 20.6278 12.3945 21.2722 13.1778L21.25 13.15Z" fill="#FFFB21"/>
<path d="M26.4166 28.2668L29.8111 32.9446L25.2111 30.8724L21.8167 26.1946L26.4166 28.2668Z" fill="#FF7B00"/>
<path opacity="0.4" d="M29.6222 8.36119L33.1111 11.3279L33.6444 13.239L28.9055 16.3056C28.8333 16.8834 28.7278 17.4612 28.5611 18.0501C28.4555 18.4223 28.3222 18.7834 28.1778 19.1445L21.4611 13.4334C21.0722 12.8723 20.5389 12.4112 19.8944 12.1001L13.2 6.40564C14.1111 5.98342 15.0611 5.65564 16.0333 5.44453L18.7333 0.666748L20.9389 0.972304L24.3222 3.85008L24.2555 6.58341C25.2444 7.15564 26.1055 7.87786 26.8111 8.72786L29.6222 8.36119ZM16.2722 21.2945C16.1111 21.289 15.95 21.2723 15.7889 21.2501C13.8111 20.9779 12.4444 19.5723 12.1667 17.8001L5.94443 12.5056L6.39999 13.189C6.14999 13.739 5.92221 14.3056 5.75554 14.8945C5.58888 15.4834 5.48332 16.0612 5.41666 16.639L2.04443 18.8223L16.3278 30.9723L18.2889 27.5056C19.5167 27.2334 20.7111 26.7945 21.8222 26.1945L22.2722 26.4001L16.2722 21.2945Z" fill="white"/>
</svg>
