<svg width="21" height="20" viewBox="0 0 21 20" fill="none" xmlns="http://www.w3.org/2000/svg">
<path fill-rule="evenodd" clip-rule="evenodd" d="M3.20825 18.3333C3.20825 17.9881 3.48807 17.7083 3.83325 17.7083H17.1666C17.5118 17.7083 17.7916 17.9881 17.7916 18.3333C17.7916 18.6784 17.5118 18.9583 17.1666 18.9583H3.83325C3.48807 18.9583 3.20825 18.6784 3.20825 18.3333Z" fill="#FF6A17"/>
<path d="M9.3107 13.1835C9.52282 13.018 9.71523 12.8256 10.1 12.4409L15.0306 7.51029C14.3595 7.231 13.5647 6.77222 12.813 6.02054C12.0612 5.26873 11.6024 4.4738 11.3231 3.80268L6.39247 8.73335L6.39244 8.73337C6.00769 9.11812 5.8153 9.31052 5.64985 9.52264C5.45468 9.77287 5.28734 10.0436 5.15081 10.3301C5.03507 10.573 4.94904 10.8311 4.77696 11.3473L3.86955 14.0695C3.78487 14.3236 3.85099 14.6036 4.04034 14.793C4.22969 14.9823 4.50977 15.0485 4.76381 14.9638L7.48604 14.0564C8.00226 13.8843 8.26038 13.7983 8.50324 13.6825C8.78971 13.546 9.06046 13.3787 9.3107 13.1835Z" fill="#FF6A17"/>
<path d="M16.3987 6.14212C17.4225 5.11832 17.4225 3.4584 16.3987 2.4346C15.3749 1.4108 13.715 1.4108 12.6912 2.4346L12.0999 3.02596C12.108 3.05041 12.1164 3.0752 12.1251 3.10032C12.3418 3.72508 12.7508 4.54409 13.5201 5.31343C14.2895 6.08277 15.1085 6.49174 15.7332 6.70849C15.7582 6.71717 15.7829 6.72553 15.8073 6.73359L16.3987 6.14212Z" fill="#FF6A17"/>
</svg>
